<?xml version="1.0" standalone="no"?><!DOCTYPE svg PUBLIC "-//W3C//DTD SVG 1.1//EN" "http://www.w3.org/Graphics/SVG/1.1/DTD/svg11.dtd" ><svg version="1.1" xmlns="http://www.w3.org/2000/svg"><defs><font horiz-adv-x="0" id="font"><font-face ascent="838" bbox="-230 -208 1104 933" cap-height="700" descent="-162" font-family="Stag Web USCC" font-stretch="normal" font-style="italic" font-weight="400" units-per-em="1000" x-height="524" /><missing-glyph horiz-adv-x="500" /><glyph d="M-11 64H12Q45 64 64 97L354 602Q362 616 360 625Q358 634 344 634H286L302 700H555L616 96Q618 82 626.5 73Q635 64 648 64H675L661 0H393L408 64H505L491 221H228L183 142Q163 105 163.5 84.5Q164 64 196 64H245L231 0H-26ZM485 289 455 618H451L266 289Z" glyph-name="A" horiz-adv-x="751" unicode="A" /><glyph d="M361 0 375 64H448L484 221H250L189 140Q161 103 167 83.5Q173 64 205 64H247L232 0H-27L-13 64H9Q38 64 63 97L444 600Q454 614 450 624Q446 634 432 634H379L394 700H1039L996 514H923L936 629H695L640 392H761L789 475H859L805 240H736L747 323H624L565 70H825L867 198H942L897 0ZM302 289H500L579 629H558Z" glyph-name="AE" horiz-adv-x="996" unicode="&#198;" /><glyph d="M-13 64H10Q43 64 62 97L352 602Q360 616 358 625Q356 634 342 634H284L300 700H553L614 96Q616 82 624.5 73Q633 64 646 64H673L659 0H391L406 64H503L489 221H226L181 142Q161 105 161.5 84.5Q162 64 194 64H243L229 0H-28ZM483 289 453 618H449L264 289ZM486 872H597L587 833L485 739H422Z" glyph-name="Aacute" horiz-adv-x="747" unicode="&#193;" /><glyph d="M-13 64H10Q43 64 62 97L352 602Q360 616 358 625Q356 634 342 634H284L300 700H553L614 96Q616 82 624.5 73Q633 64 646 64H673L659 0H391L406 64H503L489 221H226L181 142Q161 105 161.5 84.5Q162 64 194 64H243L229 0H-28ZM483 289 453 618H449L264 289ZM342 769 434 872H526L585 769L578 739H537L473 808L381 739H335Z" glyph-name="Acircumflex" horiz-adv-x="747" unicode="&#194;" /><glyph d="M-13 64H10Q43 64 62 97L352 602Q360 616 358 625Q356 634 342 634H284L300 700H553L614 96Q616 82 624.5 73Q633 64 646 64H673L659 0H391L406 64H503L489 221H226L181 142Q161 105 161.5 84.5Q162 64 194 64H243L229 0H-28ZM483 289 453 618H449L264 289ZM385 752Q360 752 344.5 768Q329 784 329 807Q329 833 347.5 850Q366 867 391 867Q416 867 431.5 850.5Q447 834 447 811Q447 785 428 768.5Q409 752 385 752ZM556 752Q532 752 516.5 768Q501 784 501 807Q501 833 519.5 850Q538 867 562 867Q587 867 602.5 850.5Q618 834 618 811Q618 785 599 768.5Q580 752 556 752Z" glyph-name="Adieresis" horiz-adv-x="747" unicode="&#196;" /><glyph d="M-13 64H10Q43 64 62 97L352 602Q360 616 358 625Q356 634 342 634H284L300 700H553L614 96Q616 82 624.5 73Q633 64 646 64H673L659 0H391L406 64H503L489 221H226L181 142Q161 105 161.5 84.5Q162 64 194 64H243L229 0H-28ZM483 289 453 618H449L264 289ZM351 833 360 872H454L496 739H435Z" glyph-name="Agrave" horiz-adv-x="747" unicode="&#192;" /><glyph d="M-13 64H10Q43 64 62 97L352 602Q360 616 358 625Q356 634 342 634H284L300 700H553L614 96Q616 82 624.5 73Q633 64 646 64H673L659 0H391L406 64H503L489 221H226L181 142Q161 105 161.5 84.5Q162 64 194 64H243L229 0H-28ZM483 289 453 618H449L264 289ZM462 741Q421 741 393.5 765.5Q366 790 366 832Q366 856 374.5 874.5Q383 893 397.5 906Q412 919 431 926Q450 933 470 933Q510 933 537.5 908Q565 883 565 842Q565 818 556.5 799Q548 780 533.5 767.5Q519 755 500.5 748Q482 741 462 741ZM463 784Q485 784 500.5 799Q516 814 516 840Q516 863 503 876.5Q490 890 468 890Q445 890 430 875Q415 860 415 832Q415 810 427.5 797Q440 784 463 784Z" glyph-name="Aring" horiz-adv-x="747" unicode="&#197;" /><glyph d="M-13 64H10Q43 64 62 97L352 602Q360 616 358 625Q356 634 342 634H284L300 700H553L614 96Q616 82 624.5 73Q633 64 646 64H673L659 0H391L406 64H503L489 221H226L181 142Q161 105 161.5 84.5Q162 64 194 64H243L229 0H-28ZM483 289 453 618H449L264 289ZM317 800Q330 823 352 840.5Q374 858 410 858Q428 858 446.5 853Q465 848 482 842Q499 836 514.5 831Q530 826 541 826Q558 826 569.5 836Q581 846 588 862H643L630 806Q617 783 594.5 765.5Q572 748 536 748Q518 748 500 753.5Q482 759 464.5 765.5Q447 772 432 777.5Q417 783 406 783Q389 783 377.5 772.5Q366 762 360 745H305Z" glyph-name="Atilde" horiz-adv-x="747" unicode="&#195;" /><glyph d="M-9 64H32Q45 64 57 74Q69 84 71 95L187 603Q190 614 185.5 624Q181 634 169 634H122L138 700H397Q507 700 563 662Q619 624 619 552Q619 471 573 426Q527 381 446 367V363Q508 354 546 322Q584 290 584 230Q584 177 563.5 134.5Q543 92 505 62Q467 32 412.5 16Q358 0 290 0H-23ZM288 70Q338 70 371.5 83Q405 96 425.5 118.5Q446 141 455 170.5Q464 200 464 234Q464 283 433.5 307Q403 331 335 331H241L180 70ZM341 399Q385 399 415.5 409Q446 419 465 438Q484 457 493 482.5Q502 508 502 540Q502 588 472.5 608.5Q443 629 386 629H310L256 399Z" glyph-name="B" horiz-adv-x="635" unicode="B" /><glyph d="M342 -7Q206 -7 133.5 62.5Q61 132 61 254Q61 346 91 428Q121 510 175 572Q229 634 303 670.5Q377 707 466 707Q493 707 513.5 705Q534 703 550 699Q566 695 579 690.5Q592 686 603 680Q608 680 613 686Q618 692 620 700H697L648 486H569L577 595Q560 609 533.5 619Q507 629 465 629Q404 629 352 601.5Q300 574 262.5 525Q225 476 203.5 407.5Q182 339 182 257Q182 69 348 69Q381 69 407 75Q433 81 454 91.5Q475 102 492.5 117Q510 132 528 150H585L565 64Q523 33 469.5 13Q416 -7 342 -7Z" glyph-name="C" horiz-adv-x="655" unicode="C" /><glyph d="M251 -175Q221 -175 203 -169.5Q185 -164 172 -157L183 -110H213Q217 -116 226 -121Q235 -126 250 -126Q289 -126 289 -97Q289 -86 279.5 -78.5Q270 -71 249 -71H233L249 0H264Q165 19 113 85Q61 151 61 254Q61 346 91 428Q121 510 175 572Q229 634 303 670.5Q377 707 466 707Q493 707 513.5 705Q534 703 550 699Q566 695 579 690.5Q592 686 603 680Q608 680 613 686Q618 692 620 700H697L648 486H569L577 595Q560 609 533.5 619Q507 629 465 629Q404 629 352 601.5Q300 574 262.5 525Q225 476 203.5 407.5Q182 339 182 257Q182 69 348 69Q381 69 407 75Q433 81 454 91.5Q475 102 492.5 117Q510 132 528 150H585L565 64Q523 33 469.5 13Q416 -7 342 -7Q331 -7 320.5 -6.5Q310 -6 299 -5L292 -32Q325 -34 342.5 -51Q360 -68 360 -95Q360 -133 330.5 -154Q301 -175 251 -175Z" glyph-name="Ccedilla" horiz-adv-x="655" unicode="&#199;" /><glyph d="M-9 64H32Q45 64 57 74Q69 84 71 95L187 603Q190 614 185.5 624Q181 634 169 634H122L138 700H397Q545 700 624.5 631.5Q704 563 704 426Q704 331 676 252.5Q648 174 593 118Q538 62 458 31Q378 0 275 0H-23ZM282 68Q357 68 414 94.5Q471 121 508.5 169Q546 217 565 284.5Q584 352 584 435Q584 537 534 583Q484 629 383 629H310L180 68Z" glyph-name="D" horiz-adv-x="722" unicode="D" /><glyph d="M-9 64H32Q45 64 57 74Q69 84 71 95L187 603Q190 614 185.5 624Q181 634 169 634H122L138 700H664L621 514H548L561 629H310L255 392H386L414 475H484L430 240H361L372 323H239L180 70H450L492 198H567L522 0H-23Z" glyph-name="E" horiz-adv-x="621" unicode="E" /><glyph d="M451 872H562L552 833L450 739H387ZM-9 64H32Q45 64 57 74Q69 84 71 95L187 603Q190 614 185.5 624Q181 634 169 634H122L138 700H664L621 514H548L561 629H310L255 392H386L414 475H484L430 240H361L372 323H239L180 70H450L492 198H567L522 0H-23Z" glyph-name="Eacute" horiz-adv-x="621" unicode="&#201;" /><glyph d="M306 769 398 872H490L549 769L542 739H501L437 808L345 739H299ZM-9 64H32Q45 64 57 74Q69 84 71 95L187 603Q190 614 185.5 624Q181 634 169 634H122L138 700H664L621 514H548L561 629H310L255 392H386L414 475H484L430 240H361L372 323H239L180 70H450L492 198H567L522 0H-23Z" glyph-name="Ecircumflex" horiz-adv-x="621" unicode="&#202;" /><glyph d="M349 752Q324 752 308.5 768Q293 784 293 807Q293 833 311.5 850Q330 867 355 867Q380 867 395.5 850.5Q411 834 411 811Q411 785 392 768.5Q373 752 349 752ZM520 752Q496 752 480.5 768Q465 784 465 807Q465 833 483.5 850Q502 867 526 867Q551 867 566.5 850.5Q582 834 582 811Q582 785 563 768.5Q544 752 520 752ZM-9 64H32Q45 64 57 74Q69 84 71 95L187 603Q190 614 185.5 624Q181 634 169 634H122L138 700H664L621 514H548L561 629H310L255 392H386L414 475H484L430 240H361L372 323H239L180 70H450L492 198H567L522 0H-23Z" glyph-name="Edieresis" horiz-adv-x="621" unicode="&#203;" /><glyph d="M-9 64H32Q45 64 57 74Q69 84 71 95L187 603Q190 614 185.5 624Q181 634 169 634H122L138 700H664L621 514H548L561 629H310L255 392H386L414 475H484L430 240H361L372 323H239L180 70H450L492 198H567L522 0H-23ZM315 833 324 872H418L460 739H399Z" glyph-name="Egrave" horiz-adv-x="621" unicode="&#200;" /><glyph d="M-9 64H32Q45 64 57 74Q69 84 71 95L121 313H49L64 380H136L187 603Q190 614 185.5 624Q181 634 169 634H122L138 700H397Q545 700 624.5 631.5Q704 563 704 426Q704 331 676 252.5Q648 174 593 118Q538 62 458 31Q378 0 275 0H-23ZM282 68Q357 68 414 94.5Q471 121 508.5 169Q546 217 565 284.5Q584 352 584 435Q584 537 534 583Q484 629 383 629H310L252 380H421L405 313H237L180 68Z" glyph-name="Eth" horiz-adv-x="722" unicode="&#208;" /><glyph d="M221 251V234Q221 152 252.5 110.5Q284 69 356 69Q403 69 437.5 87.5Q472 106 498 137H559L540 48Q499 24 454 8.5Q409 -7 349 -7Q231 -7 167 58.5Q103 124 104 241V251H39L53 314H108Q112 347 120 380H68L84 443H139Q150 472 164.5 500Q179 528 196 554Q244 626 316.5 666.5Q389 707 483 707Q537 707 579.5 698.5Q622 690 660 670L628 534H563Q560 580 540.5 605Q521 630 471 630Q411 630 368.5 602Q326 574 295 523Q273 485 257 443H481L453 380H238Q230 347 226 314H426L400 251Z" glyph-name="Euro" horiz-adv-x="631" unicode="&#8364;" /><glyph d="M-9 64H32Q45 64 57 74Q69 84 71 95L187 603Q190 614 185.5 624Q181 634 169 634H122L138 700H662L618 508H545L560 629H310L251 376H381L410 461H480L424 218H355L366 307H236L179 64H270L256 0H-23Z" glyph-name="F" horiz-adv-x="599" unicode="F" /><glyph d="M322 -7Q198 -7 129.5 62.5Q61 132 61 254Q61 351 93 434Q125 517 180.5 577.5Q236 638 310.5 672.5Q385 707 471 707Q501 707 523 704.5Q545 702 561.5 698.5Q578 695 589.5 690Q601 685 611 680Q616 680 620 686Q624 692 626 700H702L654 492H575L583 592Q564 609 538.5 619.5Q513 630 469 630Q411 630 358.5 603.5Q306 577 266.5 528Q227 479 204 410Q181 341 181 256Q181 164 221 116.5Q261 69 340 69Q362 69 378.5 71.5Q395 74 409 78.5Q423 83 435 89Q447 95 460 102L496 259H413L428 325H685L670 259H641Q629 259 617 249Q605 239 603 228L550 0H486Q487 7 483 16.5Q479 26 468 26Q441 12 408 2.5Q375 -7 322 -7Z" glyph-name="G" horiz-adv-x="705" unicode="G" /><glyph d="M-9 64H32Q45 64 57 74Q69 84 71 95L187 602Q190 613 185.5 623.5Q181 634 169 634H122L138 700H415L399 634H311L255 393H568L623 634H534L549 700H827L812 634H770Q758 634 746 623.5Q734 613 732 602L615 95Q613 84 617.5 74Q622 64 634 64H681L667 0H388L403 64H492L552 325H240L179 64H269L254 0H-23Z" glyph-name="H" horiz-adv-x="762" unicode="H" /><glyph d="M-9 64H41Q53 64 65 74Q77 84 79 95L196 606Q198 615 193.5 624.5Q189 634 178 634H122L138 700H415L400 634H350Q338 634 326 624Q314 614 312 603L194 95Q191 84 195.5 74Q200 64 211 64H269L254 0H-23Z" glyph-name="I" horiz-adv-x="350" unicode="I" /><glyph d="M-9 64H41Q53 64 65 74Q77 84 79 95L196 606Q198 615 193.5 624.5Q189 634 178 634H122L138 700H415L400 634H350Q338 634 326 624Q314 614 312 603L194 95Q191 84 195.5 74Q200 64 211 64H269L254 0H-23ZM307 872H418L408 833L306 739H243Z" glyph-name="Iacute" horiz-adv-x="350" unicode="&#205;" /><glyph d="M-9 64H41Q53 64 65 74Q77 84 79 95L196 606Q198 615 193.5 624.5Q189 634 178 634H122L138 700H415L400 634H350Q338 634 326 624Q314 614 312 603L194 95Q191 84 195.5 74Q200 64 211 64H269L254 0H-23ZM169 769 261 872H353L412 769L405 739H364L300 808L208 739H162Z" glyph-name="Icircumflex" horiz-adv-x="350" unicode="&#206;" /><glyph d="M-9 64H41Q53 64 65 74Q77 84 79 95L196 606Q198 615 193.5 624.5Q189 634 178 634H122L138 700H415L400 634H350Q338 634 326 624Q314 614 312 603L194 95Q191 84 195.5 74Q200 64 211 64H269L254 0H-23ZM204 752Q179 752 163.5 768Q148 784 148 807Q148 833 166.5 850Q185 867 210 867Q235 867 250.5 850.5Q266 834 266 811Q266 785 247 768.5Q228 752 204 752ZM375 752Q351 752 335.5 768Q320 784 320 807Q320 833 338.5 850Q357 867 381 867Q406 867 421.5 850.5Q437 834 437 811Q437 785 418 768.5Q399 752 375 752Z" glyph-name="Idieresis" horiz-adv-x="350" unicode="&#207;" /><glyph d="M-9 64H41Q53 64 65 74Q77 84 79 95L196 606Q198 615 193.5 624.5Q189 634 178 634H122L138 700H415L400 634H350Q338 634 326 624Q314 614 312 603L194 95Q191 84 195.5 74Q200 64 211 64H269L254 0H-23ZM174 833 183 872H277L319 739H258Z" glyph-name="Igrave" horiz-adv-x="350" unicode="&#204;" /><glyph d="M143 -7Q89 -7 48.5 4Q8 15 -19 30L0 112H63Q72 94 91.5 81.5Q111 69 148 69Q196 69 221 93.5Q246 118 257 169L356 603Q358 614 353.5 624Q349 634 338 634H289L304 700H567L552 634H510Q498 634 486.5 624Q475 614 472 603L372 165Q351 78 298 35.5Q245 -7 143 -7Z" glyph-name="J" horiz-adv-x="502" unicode="J" /><glyph d="M-9 64H32Q45 64 57 74Q69 84 71 95L187 603Q190 614 185.5 624Q181 634 169 634H122L138 700H407L392 634H311L241 330L526 581Q552 604 549 619Q546 634 523 634H508L523 700H759L744 634H724Q710 634 699.5 629Q689 624 673 611L428 405L567 95Q573 82 581 73Q589 64 603 64H633L619 0H448L461 57L340 334L218 231L179 64H261L247 0H-23Z" glyph-name="K" horiz-adv-x="714" unicode="K" /><glyph d="M-9 64H32Q45 64 57 74Q69 84 71 95L187 603Q190 614 185.5 624Q181 634 169 634H122L138 700H427L412 634H311L180 70H431L479 216H557L508 0H-23Z" glyph-name="L" horiz-adv-x="604" unicode="L" /><glyph d="M-9 64H32Q45 64 57 74Q69 84 71 95L107 254L27 226L43 301L124 329L187 603Q190 614 185.5 624Q181 634 169 634H122L138 700H427L412 634H311L250 372L468 448L451 373L233 297L180 70H431L479 216H557L508 0H-23Z" glyph-name="Lslash" horiz-adv-x="604" unicode="&#321;" /><glyph d="M-9 64H32Q45 64 57 74Q69 84 71 95L187 603Q190 614 185.5 624Q181 634 169 634H122L138 700H383L431 168H433L721 700H978L962 634H920Q908 634 896 624Q884 614 881 603L765 95Q763 84 767.5 74Q772 64 784 64H831L817 0H549L564 64H642L771 625H764L424 0H341L288 625H281L152 64H232L217 0H-23Z" glyph-name="M" horiz-adv-x="913" unicode="M" /><glyph d="M-9 64H32Q45 64 57 74Q69 84 71 95L187 603Q190 614 185.5 624Q181 634 169 634H122L138 700H334L531 175H533L638 634H551L566 700H815L800 634H759Q747 634 735 624Q723 614 721 603L583 0H482L271 562H268L153 64H243L229 0H-23Z" glyph-name="N" horiz-adv-x="747" unicode="N" /><glyph glyph-name="NULL" horiz-adv-x="0" /><glyph d="M-9 64H32Q45 64 57 74Q69 84 71 95L187 603Q190 614 185.5 624Q181 634 169 634H122L138 700H334L531 175H533L638 634H551L566 700H815L800 634H759Q747 634 735 624Q723 614 721 603L583 0H482L271 562H268L153 64H243L229 0H-23ZM339 800Q352 823 374 840.5Q396 858 432 858Q450 858 468.5 853Q487 848 504 842Q521 836 536.5 831Q552 826 563 826Q580 826 591.5 836Q603 846 610 862H665L652 806Q639 783 616.5 765.5Q594 748 558 748Q540 748 522 753.5Q504 759 486.5 765.5Q469 772 454 777.5Q439 783 428 783Q411 783 399.5 772.5Q388 762 382 745H327Z" glyph-name="Ntilde" horiz-adv-x="746" unicode="&#209;" /><glyph d="M344 -7Q279 -7 226.5 11.5Q174 30 137 66Q100 102 80 154Q60 206 60 273Q60 366 90 445.5Q120 525 172 583Q224 641 292.5 674Q361 707 439 707Q503 707 555.5 688Q608 669 644.5 633Q681 597 701 545Q721 493 721 427Q721 331 691 251Q661 171 609.5 113.5Q558 56 489.5 24.5Q421 -7 344 -7ZM347 69Q404 69 450.5 97Q497 125 530.5 174Q564 223 582.5 288.5Q601 354 601 429Q601 526 558.5 577Q516 628 434 628Q378 628 331 600.5Q284 573 250.5 524.5Q217 476 198.5 410.5Q180 345 180 269Q180 172 223 120.5Q266 69 347 69Z" glyph-name="O" horiz-adv-x="741" unicode="O" /><glyph d="M441 70 569 629H482Q408 629 351.5 603.5Q295 578 257 531Q219 484 199.5 416.5Q180 349 180 265Q180 163 230.5 116.5Q281 70 382 70ZM368 0Q220 0 140 68.5Q60 137 60 274Q60 370 90 448.5Q120 527 175.5 583Q231 639 310.5 669.5Q390 700 489 700H1035L992 514H919L932 629H686L631 392H757L785 475H855L801 240H732L743 323H615L556 70H821L863 198H938L893 0Z" glyph-name="OE" horiz-adv-x="992" unicode="&#338;" /><glyph d="M489 879H600L590 840L488 746H425ZM344 -7Q279 -7 226.5 11.5Q174 30 137 66Q100 102 80 154Q60 206 60 273Q60 366 90 445.5Q120 525 172 583Q224 641 292.5 674Q361 707 439 707Q503 707 555.5 688Q608 669 644.5 633Q681 597 701 545Q721 493 721 427Q721 331 691 251Q661 171 609.5 113.5Q558 56 489.5 24.5Q421 -7 344 -7ZM347 69Q404 69 450.5 97Q497 125 530.5 174Q564 223 582.5 288.5Q601 354 601 429Q601 526 558.5 577Q516 628 434 628Q378 628 331 600.5Q284 573 250.5 524.5Q217 476 198.5 410.5Q180 345 180 269Q180 172 223 120.5Q266 69 347 69Z" glyph-name="Oacute" horiz-adv-x="741" unicode="&#211;" /><glyph d="M347 776 439 879H531L590 776L583 746H542L478 815L386 746H340ZM344 -7Q279 -7 226.5 11.5Q174 30 137 66Q100 102 80 154Q60 206 60 273Q60 366 90 445.5Q120 525 172 583Q224 641 292.5 674Q361 707 439 707Q503 707 555.5 688Q608 669 644.5 633Q681 597 701 545Q721 493 721 427Q721 331 691 251Q661 171 609.5 113.5Q558 56 489.5 24.5Q421 -7 344 -7ZM347 69Q404 69 450.5 97Q497 125 530.5 174Q564 223 582.5 288.5Q601 354 601 429Q601 526 558.5 577Q516 628 434 628Q378 628 331 600.5Q284 573 250.5 524.5Q217 476 198.5 410.5Q180 345 180 269Q180 172 223 120.5Q266 69 347 69Z" glyph-name="Ocircumflex" horiz-adv-x="741" unicode="&#212;" /><glyph d="M384 740Q359 740 343.5 756Q328 772 328 795Q328 821 346.5 838Q365 855 390 855Q415 855 430.5 838.5Q446 822 446 799Q446 773 427 756.5Q408 740 384 740ZM555 740Q531 740 515.5 756Q500 772 500 795Q500 821 518.5 838Q537 855 561 855Q586 855 601.5 838.5Q617 822 617 799Q617 773 598 756.5Q579 740 555 740ZM344 -7Q279 -7 226.5 11.5Q174 30 137 66Q100 102 80 154Q60 206 60 273Q60 366 90 445.5Q120 525 172 583Q224 641 292.5 674Q361 707 439 707Q503 707 555.5 688Q608 669 644.5 633Q681 597 701 545Q721 493 721 427Q721 331 691 251Q661 171 609.5 113.5Q558 56 489.5 24.5Q421 -7 344 -7ZM347 69Q404 69 450.5 97Q497 125 530.5 174Q564 223 582.5 288.5Q601 354 601 429Q601 526 558.5 577Q516 628 434 628Q378 628 331 600.5Q284 573 250.5 524.5Q217 476 198.5 410.5Q180 345 180 269Q180 172 223 120.5Q266 69 347 69Z" glyph-name="Odieresis" horiz-adv-x="741" unicode="&#214;" /><glyph d="M344 -7Q279 -7 226.5 11.5Q174 30 137 66Q100 102 80 154Q60 206 60 273Q60 366 90 445.5Q120 525 172 583Q224 641 292.5 674Q361 707 439 707Q503 707 555.5 688Q608 669 644.5 633Q681 597 701 545Q721 493 721 427Q721 331 691 251Q661 171 609.5 113.5Q558 56 489.5 24.5Q421 -7 344 -7ZM347 69Q404 69 450.5 97Q497 125 530.5 174Q564 223 582.5 288.5Q601 354 601 429Q601 526 558.5 577Q516 628 434 628Q378 628 331 600.5Q284 573 250.5 524.5Q217 476 198.5 410.5Q180 345 180 269Q180 172 223 120.5Q266 69 347 69ZM354 840 363 879H457L499 746H438Z" glyph-name="Ograve" horiz-adv-x="741" unicode="&#210;" /><glyph d="M118 87Q90 122 75 168.5Q60 215 60 273Q60 366 90 445.5Q120 525 172 583Q224 641 292.5 674Q361 707 439 707Q548 707 619 654L678 721H757L662 613Q691 578 706 531Q721 484 721 427Q721 331 691 251Q661 171 609.5 113.5Q558 56 489.5 24.5Q421 -7 344 -7Q232 -7 161 46L94 -29H15ZM347 69Q404 69 451 97Q498 125 531.5 174Q565 223 584 288.5Q603 354 603 429Q603 488 588 530L223 116Q264 69 347 69ZM178 269Q178 213 192 171L556 583Q535 606 504 617Q473 628 434 628Q378 628 331 600.5Q284 573 250 524.5Q216 476 197 410.5Q178 345 178 269Z" glyph-name="Oslash" horiz-adv-x="741" unicode="&#216;" /><glyph d="M344 -7Q279 -7 226.5 11.5Q174 30 137 66Q100 102 80 154Q60 206 60 273Q60 366 90 445.5Q120 525 172 583Q224 641 292.5 674Q361 707 439 707Q503 707 555.5 688Q608 669 644.5 633Q681 597 701 545Q721 493 721 427Q721 331 691 251Q661 171 609.5 113.5Q558 56 489.5 24.5Q421 -7 344 -7ZM347 69Q404 69 450.5 97Q497 125 530.5 174Q564 223 582.5 288.5Q601 354 601 429Q601 526 558.5 577Q516 628 434 628Q378 628 331 600.5Q284 573 250.5 524.5Q217 476 198.5 410.5Q180 345 180 269Q180 172 223 120.5Q266 69 347 69ZM320 807Q333 830 355 847.5Q377 865 413 865Q431 865 449.5 860Q468 855 485 849Q502 843 517.5 838Q533 833 544 833Q561 833 572.5 843Q584 853 591 869H646L633 813Q620 790 597.5 772.5Q575 755 539 755Q521 755 503 760.5Q485 766 467.5 772.5Q450 779 435 784.5Q420 790 409 790Q392 790 380.5 779.5Q369 769 363 752H308Z" glyph-name="Otilde" horiz-adv-x="741" unicode="&#213;" /><glyph d="M-9 64H32Q45 64 57 74Q69 84 71 95L187 603Q190 614 185.5 624Q181 634 169 634H122L138 700H405Q457 700 500.5 689Q544 678 574.5 656.5Q605 635 622 602Q639 569 639 526Q639 463 617.5 416Q596 369 555.5 337Q515 305 457 289Q399 273 327 273H228L179 64H269L254 0H-23ZM335 344Q385 344 420.5 357Q456 370 478.5 393.5Q501 417 511 450.5Q521 484 520 525Q519 575 489.5 601.5Q460 628 396 628H310L244 344Z" glyph-name="P" horiz-adv-x="623" unicode="P" /><glyph d="M563 -124Q543 -73 484.5 -48.5Q426 -24 320 -10Q260 -1 211.5 19.5Q163 40 129.5 74.5Q96 109 78 158.5Q60 208 60 273Q60 366 90 445.5Q120 525 171.5 583Q223 641 292 673.5Q361 706 439 706Q504 706 556 687Q608 668 644.5 632Q681 596 700.5 544.5Q720 493 720 427Q720 347 701.5 281.5Q683 216 649.5 166Q616 116 569.5 83Q523 50 468 35V32Q557 19 605 -5Q653 -29 674 -63L660 -124ZM347 69Q404 69 450.5 97Q497 125 530.5 174Q564 223 582.5 288.5Q601 354 601 429Q601 526 558.5 577Q516 628 434 628Q378 628 331 600.5Q284 573 250.5 524.5Q217 476 198.5 410.5Q180 345 180 269Q180 172 223 120.5Q266 69 347 69Z" glyph-name="Q" horiz-adv-x="741" unicode="Q" /><glyph d="M-9 64H32Q45 64 57 74Q69 84 71 95L187 603Q190 614 185.5 624Q181 634 169 634H122L138 700H409Q515 700 576.5 659Q638 618 638 540Q638 494 623 459Q608 424 582 399Q556 374 519.5 359Q483 344 441 338V335Q466 329 484.5 319.5Q503 310 515.5 293.5Q528 277 536 250.5Q544 224 549 184L561 90Q564 64 581 64H613L598 0H449L435 189Q432 225 426 247.5Q420 270 407.5 283Q395 296 374 301Q353 306 320 306H235L179 64H269L254 0H-23ZM346 375Q440 375 479.5 418Q519 461 519 533Q519 581 489.5 605.5Q460 630 396 630H310L251 375Z" glyph-name="R" horiz-adv-x="692" unicode="R" /><glyph d="M419 850H530L520 811L418 717H355ZM541 -6Q489 -6 465 20.5Q441 47 439 106L435 192Q433 229 425 251.5Q417 274 402 286Q387 298 365 302Q343 306 314 306H235L179 64H269L254 0H-23L-9 64H32Q45 64 57 74Q69 84 71 95L187 603Q190 614 185.5 624Q181 634 169 634H122L138 700H409Q515 700 576.5 659Q638 618 638 540Q638 494 623 459Q608 424 582 399Q556 374 519.5 359Q483 344 440 338V335Q461 329 478.5 320Q496 311 510 294Q524 277 533.5 250.5Q543 224 549 184L561 93Q563 78 573.5 71Q584 64 595 64H617L605 8Q594 3 579 -1.5Q564 -6 541 -6ZM345 375Q439 375 479 418Q519 461 519 533Q519 581 489.5 605.5Q460 630 396 630H310L251 375Z" glyph-name="Racute.titlingalt" horiz-adv-x="697" /><glyph d="M533 820 441 717H349L290 820L297 850H338L402 781L494 850H540ZM541 -6Q489 -6 465 20.5Q441 47 439 106L435 192Q433 229 425 251.5Q417 274 402 286Q387 298 365 302Q343 306 314 306H235L179 64H269L254 0H-23L-9 64H32Q45 64 57 74Q69 84 71 95L187 603Q190 614 185.5 624Q181 634 169 634H122L138 700H409Q515 700 576.5 659Q638 618 638 540Q638 494 623 459Q608 424 582 399Q556 374 519.5 359Q483 344 440 338V335Q461 329 478.5 320Q496 311 510 294Q524 277 533.5 250.5Q543 224 549 184L561 93Q563 78 573.5 71Q584 64 595 64H617L605 8Q594 3 579 -1.5Q564 -6 541 -6ZM345 375Q439 375 479 418Q519 461 519 533Q519 581 489.5 605.5Q460 630 396 630H310L251 375Z" glyph-name="Rcaron.titlingalt" horiz-adv-x="697" /><glyph d="M238 -7Q174 -7 139 4.5Q104 16 84 26Q74 26 68 0H-9L38 204H117L105 109Q122 95 153 80.5Q184 66 239 66Q309 66 351 98Q393 130 393 200Q393 225 383.5 242.5Q374 260 357.5 272.5Q341 285 319 294Q297 303 272 313Q231 330 201.5 347.5Q172 365 153 387Q134 409 124.5 436.5Q115 464 115 502Q115 547 129.5 584.5Q144 622 173.5 649Q203 676 246.5 691.5Q290 707 348 707Q402 707 434.5 696.5Q467 686 485 676Q490 676 495 682.5Q500 689 502 700H576L533 515H456L463 594Q446 611 417.5 622Q389 633 343 633Q281 633 248 604Q215 575 215 520Q215 480 239.5 458Q264 436 308 418Q351 400 386 383.5Q421 367 446 344.5Q471 322 484.5 290.5Q498 259 498 213Q498 165 482 125Q466 85 433.5 55.5Q401 26 352 9.5Q303 -7 238 -7Z" glyph-name="S" horiz-adv-x="556" unicode="S" /><glyph d="M524 849 432 746H340L281 849L288 879H329L393 810L485 879H531ZM238 -7Q174 -7 139 4.5Q104 16 84 26Q74 26 68 0H-9L38 204H117L105 109Q122 95 153 80.5Q184 66 239 66Q309 66 351 98Q393 130 393 200Q393 225 383.5 242.5Q374 260 357.5 272.5Q341 285 319 294Q297 303 272 313Q231 330 201.5 347.5Q172 365 153 387Q134 409 124.5 436.5Q115 464 115 502Q115 547 129.5 584.5Q144 622 173.5 649Q203 676 246.5 691.5Q290 707 348 707Q402 707 434.5 696.5Q467 686 485 676Q490 676 495 682.5Q500 689 502 700H576L533 515H456L463 594Q446 611 417.5 622Q389 633 343 633Q281 633 248 604Q215 575 215 520Q215 480 239.5 458Q264 436 308 418Q351 400 386 383.5Q421 367 446 344.5Q471 322 484.5 290.5Q498 259 498 213Q498 165 482 125Q466 85 433.5 55.5Q401 26 352 9.5Q303 -7 238 -7Z" glyph-name="Scaron" horiz-adv-x="556" unicode="&#352;" /><glyph d="M151 64H199Q211 64 223 74Q235 84 237 95L360 631H216L171 483H95L144 700H724L673 483H598L621 631H475L353 95Q350 84 355 74Q360 64 372 64H424L409 0H137Z" glyph-name="T" horiz-adv-x="664" unicode="T" /><glyph d="M-9 64H32Q45 64 57 74Q69 84 71 95L187 603Q190 614 185.5 624Q181 634 169 634H122L138 700H413L398 634H311L290 544H381Q431 544 473 536Q515 528 545.5 510Q576 492 593 462.5Q610 433 610 391Q610 333 588 290Q566 247 527 219Q488 191 434.5 177.5Q381 164 318 164H202L179 64H271L257 0H-23ZM326 235Q410 235 450.5 272.5Q491 310 491 380Q491 429 459.5 450.5Q428 472 367 472H273L219 235Z" glyph-name="Thorn" horiz-adv-x="625" unicode="&#222;" /><glyph d="M348 -7Q280 -7 228.5 10Q177 27 145 60.5Q113 94 103 143.5Q93 193 108 258L186 602Q189 613 184.5 623.5Q180 634 168 634H123L138 700H413L398 634H310L221 245Q210 195 216.5 162Q223 129 242 109Q261 89 290.5 81Q320 73 355 73Q396 73 427.5 81.5Q459 90 482.5 110Q506 130 522 162.5Q538 195 549 243L638 634H554L569 700H814L798 634H758Q746 634 734 623.5Q722 613 720 602L635 234Q621 173 598 127.5Q575 82 540.5 52Q506 22 458.5 7.5Q411 -7 348 -7Z" glyph-name="U" horiz-adv-x="747" unicode="U" /><glyph d="M518 872H629L619 833L517 739H454ZM348 -7Q280 -7 228.5 10Q177 27 145 60.5Q113 94 103 143.5Q93 193 108 258L186 602Q189 613 184.5 623.5Q180 634 168 634H123L138 700H413L398 634H310L221 245Q210 195 216.5 162Q223 129 242 109Q261 89 290.5 81Q320 73 355 73Q396 73 427.5 81.5Q459 90 482.5 110Q506 130 522 162.5Q538 195 549 243L638 634H554L569 700H814L798 634H758Q746 634 734 623.5Q722 613 720 602L635 234Q621 173 598 127.5Q575 82 540.5 52Q506 22 458.5 7.5Q411 -7 348 -7Z" glyph-name="Uacute" horiz-adv-x="747" unicode="&#218;" /><glyph d="M376 769 468 872H560L619 769L612 739H571L507 808L415 739H369ZM348 -7Q280 -7 228.5 10Q177 27 145 60.5Q113 94 103 143.5Q93 193 108 258L186 602Q189 613 184.5 623.5Q180 634 168 634H123L138 700H413L398 634H310L221 245Q210 195 216.5 162Q223 129 242 109Q261 89 290.5 81Q320 73 355 73Q396 73 427.5 81.5Q459 90 482.5 110Q506 130 522 162.5Q538 195 549 243L638 634H554L569 700H814L798 634H758Q746 634 734 623.5Q722 613 720 602L635 234Q621 173 598 127.5Q575 82 540.5 52Q506 22 458.5 7.5Q411 -7 348 -7Z" glyph-name="Ucircumflex" horiz-adv-x="747" unicode="&#219;" /><glyph d="M416 752Q391 752 375.5 768Q360 784 360 807Q360 833 378.5 850Q397 867 422 867Q447 867 462.5 850.5Q478 834 478 811Q478 785 459 768.5Q440 752 416 752ZM587 752Q563 752 547.5 768Q532 784 532 807Q532 833 550.5 850Q569 867 593 867Q618 867 633.5 850.5Q649 834 649 811Q649 785 630 768.5Q611 752 587 752ZM348 -7Q280 -7 228.5 10Q177 27 145 60.5Q113 94 103 143.5Q93 193 108 258L186 602Q189 613 184.5 623.5Q180 634 168 634H123L138 700H413L398 634H310L221 245Q210 195 216.5 162Q223 129 242 109Q261 89 290.5 81Q320 73 355 73Q396 73 427.5 81.5Q459 90 482.5 110Q506 130 522 162.5Q538 195 549 243L638 634H554L569 700H814L798 634H758Q746 634 734 623.5Q722 613 720 602L635 234Q621 173 598 127.5Q575 82 540.5 52Q506 22 458.5 7.5Q411 -7 348 -7Z" glyph-name="Udieresis" horiz-adv-x="747" unicode="&#220;" /><glyph d="M348 -7Q280 -7 228.5 10Q177 27 145 60.5Q113 94 103 143.5Q93 193 108 258L186 602Q189 613 184.5 623.5Q180 634 168 634H123L138 700H413L398 634H310L221 245Q210 195 216.5 162Q223 129 242 109Q261 89 290.5 81Q320 73 355 73Q396 73 427.5 81.5Q459 90 482.5 110Q506 130 522 162.5Q538 195 549 243L638 634H554L569 700H814L798 634H758Q746 634 734 623.5Q722 613 720 602L635 234Q621 173 598 127.5Q575 82 540.5 52Q506 22 458.5 7.5Q411 -7 348 -7ZM382 833 391 872H485L527 739H466Z" glyph-name="Ugrave" horiz-adv-x="747" unicode="&#217;" /><glyph d="M175 602Q173 616 166 625Q159 634 147 634H119L135 700H394L379 634H288L346 121H349L605 571Q641 634 586 634H543L559 700H807L792 634H770Q756 634 742 625Q728 616 719 601L367 0H248Z" glyph-name="V" horiz-adv-x="740" unicode="V" /><glyph d="M171 602Q171 616 163.5 625Q156 634 143 634H121L137 700H392L376 634H286L294 145H296L561 700H656L675 145H677L873 569Q889 603 884.5 618.5Q880 634 851 634H812L827 700H1066L1051 634H1034Q1020 634 1005.5 625.5Q991 617 983 600L696 0H573L555 505H554L311 0H185Z" glyph-name="W" horiz-adv-x="999" unicode="W" /><glyph d="M-9 64H18Q29 64 43 70Q57 76 66 86L305 357L195 604Q187 621 179.5 627.5Q172 634 161 634H122L138 700H394L378 634H308L405 417L542 582Q553 596 557 606Q561 616 558.5 622Q556 628 549.5 631Q543 634 533 634H507L522 700H763L748 634H710Q700 634 685.5 627Q671 620 663 610L439 351L555 94Q568 64 591 64H616L602 0H348L362 64H441L340 292L185 111Q167 90 171 77Q175 64 195 64H232L218 0H-23Z" glyph-name="X" horiz-adv-x="698" unicode="X" /><glyph d="M168 64H216Q228 64 240 74Q252 84 254 95L300 298L177 605Q172 618 164.5 626Q157 634 144 634H121L137 700H388L373 634H287L388 367H390L548 569Q574 601 567 617.5Q560 634 530 634H497L512 700H754L739 634H721Q694 634 669 604L413 287L370 95Q368 84 372.5 74Q377 64 389 64H441L427 0H154Z" glyph-name="Y" horiz-adv-x="687" unicode="Y" /><glyph d="M168 64H216Q228 64 240 74Q252 84 254 95L300 298L177 605Q172 618 164.5 626Q157 634 144 634H121L137 700H388L373 634H287L388 367H390L548 569Q574 601 567 617.5Q560 634 530 634H497L512 700H754L739 634H721Q694 634 669 604L413 287L370 95Q368 84 372.5 74Q377 64 389 64H441L427 0H154ZM486 872H597L587 833L485 739H422Z" glyph-name="Yacute" horiz-adv-x="687" unicode="&#221;" /><glyph d="M168 64H216Q228 64 240 74Q252 84 254 95L300 298L177 605Q172 618 164.5 626Q157 634 144 634H121L137 700H388L373 634H287L388 367H390L548 569Q574 601 567 617.5Q560 634 530 634H497L512 700H754L739 634H721Q694 634 669 604L413 287L370 95Q368 84 372.5 74Q377 64 389 64H441L427 0H154ZM385 752Q360 752 344.5 768Q329 784 329 807Q329 833 347.5 850Q366 867 391 867Q416 867 431.5 850.5Q447 834 447 811Q447 785 428 768.5Q409 752 385 752ZM556 752Q532 752 516.5 768Q501 784 501 807Q501 833 519.5 850Q538 867 562 867Q587 867 602.5 850.5Q618 834 618 811Q618 785 599 768.5Q580 752 556 752Z" glyph-name="Ydieresis" horiz-adv-x="687" unicode="&#376;" /><glyph d="M-6 77 492 626V629H227L187 515H113L156 700H640L621 620L123 73V70H408L449 196H527L482 0H-24Z" glyph-name="Z" horiz-adv-x="583" unicode="Z" /><glyph d="M539 842 447 739H355L296 842L303 872H344L408 803L500 872H546ZM-6 77 492 626V629H227L187 515H113L156 700H640L621 620L123 73V70H408L449 196H527L482 0H-24Z" glyph-name="Zcaron" horiz-adv-x="583" unicode="&#381;" /><glyph d="M174 -6Q104 -6 64 28Q24 62 24 127Q24 170 40.5 204Q57 238 86.5 261.5Q116 285 157.5 297Q199 309 250 309Q288 309 313 304.5Q338 300 360 292L376 358Q387 406 363.5 430.5Q340 455 289 455Q263 455 244 451.5Q225 448 209.5 442Q194 436 181.5 427.5Q169 419 157 409H106L127 498Q162 512 202.5 521Q243 530 308 530Q405 530 454.5 486.5Q504 443 484 355L424 96Q421 82 428 73Q435 64 449 64H479L467 9Q455 3 436 -1.5Q417 -6 396 -6Q354 -6 335.5 14.5Q317 35 316 64Q287 31 251 12.5Q215 -6 174 -6ZM199 63Q242 63 270.5 82.5Q299 102 323 128L346 230Q326 237 304 241Q282 245 256 245Q194 245 160.5 216.5Q127 188 127 136Q127 101 146.5 82Q166 63 199 63Z" glyph-name="a" horiz-adv-x="553" unicode="a" /><glyph d="M170 -6Q100 -6 60 28Q20 62 20 127Q20 170 36.5 204Q53 238 82.5 261.5Q112 285 153.5 297Q195 309 246 309Q284 309 309 304.5Q334 300 356 292L372 358Q383 406 359.5 430.5Q336 455 285 455Q259 455 240 451.5Q221 448 205.5 442Q190 436 177.5 427.5Q165 419 153 409H102L123 498Q158 512 198.5 521Q239 530 304 530Q401 530 450.5 486.5Q500 443 480 355L420 96Q417 82 424 73Q431 64 445 64H475L463 9Q451 3 432 -1.5Q413 -6 392 -6Q350 -6 331.5 14.5Q313 35 312 64Q283 31 247 12.5Q211 -6 170 -6ZM195 63Q238 63 266.5 82.5Q295 102 319 128L342 230Q322 237 300 241Q278 245 252 245Q190 245 156.5 216.5Q123 188 123 136Q123 101 142.5 82Q162 63 195 63ZM354 700H465L455 661L353 567H290Z" glyph-name="aacute" horiz-adv-x="548" unicode="&#225;" /><glyph d="M170 -6Q100 -6 60 28Q20 62 20 127Q20 170 36.5 204Q53 238 82.5 261.5Q112 285 153.5 297Q195 309 246 309Q284 309 309 304.5Q334 300 356 292L372 358Q383 406 359.5 430.5Q336 455 285 455Q259 455 240 451.5Q221 448 205.5 442Q190 436 177.5 427.5Q165 419 153 409H102L123 498Q158 512 198.5 521Q239 530 304 530Q401 530 450.5 486.5Q500 443 480 355L420 96Q417 82 424 73Q431 64 445 64H475L463 9Q451 3 432 -1.5Q413 -6 392 -6Q350 -6 331.5 14.5Q313 35 312 64Q283 31 247 12.5Q211 -6 170 -6ZM195 63Q238 63 266.5 82.5Q295 102 319 128L342 230Q322 237 300 241Q278 245 252 245Q190 245 156.5 216.5Q123 188 123 136Q123 101 142.5 82Q162 63 195 63ZM208 597 300 700H392L451 597L444 567H403L339 636L247 567H201Z" glyph-name="acircumflex" horiz-adv-x="548" unicode="&#226;" /><glyph d="M321 700H432L422 661L320 567H257Z" glyph-name="acute" horiz-adv-x="446" unicode="&#180;" /><glyph d="M170 -6Q100 -6 60 28Q20 62 20 127Q20 170 36.5 204Q53 238 82.5 261.5Q112 285 153.5 297Q195 309 246 309Q284 309 309 304.5Q334 300 356 292L372 358Q383 406 359.5 430.5Q336 455 285 455Q259 455 240 451.5Q221 448 205.5 442Q190 436 177.5 427.5Q165 419 153 409H102L123 498Q158 512 198.5 521Q239 530 304 530Q401 530 450.5 486.5Q500 443 480 355L420 96Q417 82 424 73Q431 64 445 64H475L463 9Q451 3 432 -1.5Q413 -6 392 -6Q350 -6 331.5 14.5Q313 35 312 64Q283 31 247 12.5Q211 -6 170 -6ZM195 63Q238 63 266.5 82.5Q295 102 319 128L342 230Q322 237 300 241Q278 245 252 245Q190 245 156.5 216.5Q123 188 123 136Q123 101 142.5 82Q162 63 195 63ZM253 580Q228 580 212.5 596Q197 612 197 635Q197 661 215.5 678Q234 695 259 695Q284 695 299.5 678.5Q315 662 315 639Q315 613 296 596.5Q277 580 253 580ZM424 580Q400 580 384.5 596Q369 612 369 635Q369 661 387.5 678Q406 695 430 695Q455 695 470.5 678.5Q486 662 486 639Q486 613 467 596.5Q448 580 424 580Z" glyph-name="adieresis" horiz-adv-x="548" unicode="&#228;" /><glyph d="M544 -6Q477 -6 431.5 18Q386 42 363 86Q334 44 286 19Q238 -6 187 -6Q109 -6 66.5 28Q24 62 24 125Q24 167 40 199.5Q56 232 85.5 254Q115 276 156.5 287.5Q198 299 249 299Q287 299 308.5 297Q330 295 352 291L368 358Q379 403 358.5 429Q338 455 289 455Q263 455 244 451.5Q225 448 209.5 442Q194 436 181.5 427.5Q169 419 157 409H106L127 498Q162 512 202.5 521Q243 530 308 530Q367 530 404 510.5Q441 491 454 451Q490 488 536.5 509Q583 530 639 530Q714 530 760 496.5Q806 463 806 400Q806 350 782 317Q758 284 712.5 263Q667 242 600 232.5Q533 223 446 220Q445 192 448 164Q451 136 461.5 113.5Q472 91 493 77Q514 63 550 63Q576 63 595.5 68Q615 73 630 81.5Q645 90 656.5 100.5Q668 111 677 122H738L718 38Q692 23 650.5 8.5Q609 -6 544 -6ZM205 63Q255 63 288.5 83.5Q322 104 345 133Q341 149 339.5 166Q338 183 338 201V229Q318 233 298.5 234.5Q279 236 255 236Q193 236 160 209.5Q127 183 127 134Q127 100 148 81.5Q169 63 205 63ZM453 287Q581 292 640.5 315Q700 338 700 395Q700 430 681.5 446.5Q663 463 631 463Q594 463 564.5 448.5Q535 434 513 410Q491 386 476 354Q461 322 453 287Z" glyph-name="ae" horiz-adv-x="827" unicode="&#230;" /><glyph d="M170 -6Q100 -6 60 28Q20 62 20 127Q20 170 36.5 204Q53 238 82.5 261.5Q112 285 153.5 297Q195 309 246 309Q284 309 309 304.5Q334 300 356 292L372 358Q383 406 359.5 430.5Q336 455 285 455Q259 455 240 451.5Q221 448 205.5 442Q190 436 177.5 427.5Q165 419 153 409H102L123 498Q158 512 198.5 521Q239 530 304 530Q401 530 450.5 486.5Q500 443 480 355L420 96Q417 82 424 73Q431 64 445 64H475L463 9Q451 3 432 -1.5Q413 -6 392 -6Q350 -6 331.5 14.5Q313 35 312 64Q283 31 247 12.5Q211 -6 170 -6ZM195 63Q238 63 266.5 82.5Q295 102 319 128L342 230Q322 237 300 241Q278 245 252 245Q190 245 156.5 216.5Q123 188 123 136Q123 101 142.5 82Q162 63 195 63ZM218 661 227 700H321L363 567H302Z" glyph-name="agrave" horiz-adv-x="548" unicode="&#224;" /><glyph d="M244 -7Q190 -7 149 6.5Q108 20 80 43.5Q52 67 38 99Q24 131 24 168Q24 216 41 253Q58 290 85.5 317.5Q113 345 149 364.5Q185 384 223 398Q212 420 204.5 446.5Q197 473 197 505Q197 551 213 588Q229 625 258.5 651.5Q288 678 329.5 692.5Q371 707 423 707Q460 707 488 699.5Q516 692 531 683Q541 683 545 700H617L577 527H499V602Q486 613 469 620.5Q452 628 420 628Q369 628 339 599.5Q309 571 309 521Q309 487 320 459.5Q331 432 349 406L487 210Q510 242 524 277.5Q538 313 552 351H498L513 415H716L701 351H668Q657 351 647 346Q637 341 631 327Q610 279 586 232.5Q562 186 532 146L572 90Q582 76 589 70Q596 64 607 64H634L620 0H499L453 65Q411 30 361 11.5Q311 -7 244 -7ZM265 68Q307 68 344.5 85Q382 102 409 128L258 343Q236 332 215.5 318.5Q195 305 179.5 285.5Q164 266 154.5 241Q145 216 145 183Q145 160 151.5 139Q158 118 172.5 102.5Q187 87 210 77.5Q233 68 265 68Z" glyph-name="ampersand" horiz-adv-x="716" unicode="&amp;" /><glyph d="M170 -6Q100 -6 60 28Q20 62 20 127Q20 170 36.5 204Q53 238 82.5 261.5Q112 285 153.5 297Q195 309 246 309Q284 309 309 304.5Q334 300 356 292L372 358Q383 406 359.5 430.5Q336 455 285 455Q259 455 240 451.5Q221 448 205.5 442Q190 436 177.5 427.5Q165 419 153 409H102L123 498Q158 512 198.5 521Q239 530 304 530Q401 530 450.5 486.5Q500 443 480 355L420 96Q417 82 424 73Q431 64 445 64H475L463 9Q451 3 432 -1.5Q413 -6 392 -6Q350 -6 331.5 14.5Q313 35 312 64Q283 31 247 12.5Q211 -6 170 -6ZM195 63Q238 63 266.5 82.5Q295 102 319 128L342 230Q322 237 300 241Q278 245 252 245Q190 245 156.5 216.5Q123 188 123 136Q123 101 142.5 82Q162 63 195 63ZM330 569Q289 569 261.5 593.5Q234 618 234 660Q234 684 242.5 702.5Q251 721 265.5 734Q280 747 299 754Q318 761 338 761Q378 761 405.5 736Q433 711 433 670Q433 646 424.5 627Q416 608 401.5 595.5Q387 583 368.5 576Q350 569 330 569ZM331 612Q353 612 368.5 627Q384 642 384 668Q384 691 371 704.5Q358 718 336 718Q313 718 298 703Q283 688 283 660Q283 638 295.5 625Q308 612 331 612Z" glyph-name="aring" horiz-adv-x="548" unicode="&#229;" /><glyph d="M118 516 271 700H353L441 516L435 489H368L302 612H300L185 489H112Z" glyph-name="asciicircum" horiz-adv-x="442" unicode="^" /><glyph d="M43 287Q56 310 79.5 328.5Q103 347 140 347Q158 347 176.5 342.5Q195 338 212 333Q229 328 244.5 323.5Q260 319 272 319Q289 319 299.5 327.5Q310 336 318 353H379L364 293Q352 270 328.5 250.5Q305 231 269 231Q251 231 232.5 236Q214 241 196.5 247Q179 253 163.5 258Q148 263 136 263Q119 263 108.5 253.5Q98 244 91 227H31Z" glyph-name="asciitilde" horiz-adv-x="395" unicode="~" /><glyph d="M194 417 258 523 155 450 108 451 92 500 129 530 255 532 142 579 121 619 158 659 201 643 262 540 252 660 277 700H332L336 646L272 539L375 612H422L438 563L401 533L274 530L389 484L409 444L373 404L330 419L268 521L278 403L255 363H200Z" glyph-name="asterisk" horiz-adv-x="404" unicode="*" /><glyph d="M656 123Q684 123 710.5 135.5Q737 148 757 174Q777 200 789.5 240.5Q802 281 802 337Q802 401 779.5 450.5Q757 500 716 534Q675 568 618 585.5Q561 603 492 603Q427 603 363 581Q299 559 248 514Q197 469 165.5 401.5Q134 334 134 243Q134 160 160 100.5Q186 41 231 3.5Q276 -34 336.5 -51.5Q397 -69 467 -69Q543 -69 604 -52Q665 -35 709 -6H750L742 -58Q697 -88 625.5 -108.5Q554 -129 467 -129Q389 -129 315 -107.5Q241 -86 183.5 -41Q126 4 91 74.5Q56 145 56 243Q56 311 74.5 369Q93 427 125 473.5Q157 520 200 555.5Q243 591 291 615.5Q339 640 390.5 652Q442 664 492 664Q569 664 638 642.5Q707 621 759.5 579.5Q812 538 843 477Q874 416 874 337Q874 266 853.5 215Q833 164 799.5 131.5Q766 99 724 83.5Q682 68 639 68Q577 68 550.5 87Q524 106 516 137Q491 110 459.5 89Q428 68 379 68Q320 68 288 101.5Q256 135 256 198Q256 258 276 305.5Q296 353 329 391Q358 424 398 443Q438 462 485 462Q524 462 548 451Q572 440 588 424Q602 436 617.5 446.5Q633 457 647 457H683L619 197Q611 166 616.5 144.5Q622 123 656 123ZM407 130Q440 130 466 148Q492 166 516 192L563 384Q552 390 537 394Q522 398 499 398Q468 398 444.5 384Q421 370 402 345Q382 318 369 280.5Q356 243 356 195Q356 160 370 145Q384 130 407 130Z" glyph-name="at" horiz-adv-x="910" unicode="@" /><glyph d="M170 -6Q100 -6 60 28Q20 62 20 127Q20 170 36.5 204Q53 238 82.5 261.5Q112 285 153.5 297Q195 309 246 309Q284 309 309 304.5Q334 300 356 292L372 358Q383 406 359.5 430.5Q336 455 285 455Q259 455 240 451.5Q221 448 205.5 442Q190 436 177.5 427.5Q165 419 153 409H102L123 498Q158 512 198.5 521Q239 530 304 530Q401 530 450.5 486.5Q500 443 480 355L420 96Q417 82 424 73Q431 64 445 64H475L463 9Q451 3 432 -1.5Q413 -6 392 -6Q350 -6 331.5 14.5Q313 35 312 64Q283 31 247 12.5Q211 -6 170 -6ZM195 63Q238 63 266.5 82.5Q295 102 319 128L342 230Q322 237 300 241Q278 245 252 245Q190 245 156.5 216.5Q123 188 123 136Q123 101 142.5 82Q162 63 195 63ZM177 628Q190 651 212 668.5Q234 686 270 686Q288 686 306.5 681Q325 676 342 670Q359 664 374.5 659Q390 654 401 654Q418 654 429.5 664Q441 674 448 690H503L490 634Q477 611 454.5 593.5Q432 576 396 576Q378 576 360 581.5Q342 587 324.5 593.5Q307 600 292 605.5Q277 611 266 611Q249 611 237.5 600.5Q226 590 220 573H165Z" glyph-name="atilde" horiz-adv-x="548" unicode="&#227;" /><glyph d="M263 -6Q205 -6 171.5 11.5Q138 29 117 52Q102 32 84 16Q66 0 57 0H10L149 607Q151 617 145.5 625.5Q140 634 129 634H91L106 700H259Q279 700 273 673L218 439Q234 456 254.5 472.5Q275 489 298.5 502Q322 515 349.5 523Q377 531 407 531Q471 531 512 487.5Q553 444 553 357Q553 279 529 204.5Q505 130 456 76Q416 32 368.5 13Q321 -6 263 -6ZM246 59Q296 59 333 83.5Q370 108 394 147.5Q418 187 430 237.5Q442 288 442 340Q442 399 419.5 425Q397 451 362 451Q340 451 319 444.5Q298 438 277.5 427.5Q257 417 238.5 403.5Q220 390 204 375L139 94Q155 81 178.5 70Q202 59 246 59Z" glyph-name="b" horiz-adv-x="587" unicode="b" /><glyph d="M135 741H211L278 -49H200Z" glyph-name="backslash" horiz-adv-x="370" unicode="\" /><glyph d="M79 741H156V-49H79Z" glyph-name="bar" horiz-adv-x="195" unicode="|" /><glyph d="M187 -49Q121 -49 93 -15.5Q65 18 79 78L122 264Q127 288 118.5 303.5Q110 319 81 319H50L65 386H89Q120 386 138 398Q156 410 162 438L205 624Q219 685 255 713Q291 741 355 741H435L420 674H355Q334 674 320.5 661.5Q307 649 302 627L259 440Q251 403 227.5 383Q204 363 160 352V350Q198 339 210.5 313.5Q223 288 213 246L172 65Q167 43 174 29.5Q181 16 202 16H268L253 -49Z" glyph-name="braceleft" horiz-adv-x="360" unicode="{" /><glyph d="M-20 16H44Q65 16 79 28.5Q93 41 98 63L143 259Q151 296 174.5 316Q198 336 242 347V349Q204 360 191 385Q178 410 188 453L228 626Q233 647 225 660.5Q217 674 197 674H132L147 741H214Q280 741 308 707.5Q336 674 322 614L281 435Q275 411 283.5 395.5Q292 380 321 380H352L337 313H313Q252 313 240 261L195 68Q181 7 144.5 -21Q108 -49 45 -49H-35Z" glyph-name="braceright" horiz-adv-x="360" unicode="}" /><glyph d="M162 741H365L350 674H243L91 16H198L183 -49H-20Z" glyph-name="bracketleft" horiz-adv-x="291" unicode="[" /><glyph d="M-20 16H87L239 674H132L147 741H351L169 -49H-35Z" glyph-name="bracketright" horiz-adv-x="291" unicode="]" /><glyph d="M308 568Q280 568 259 576Q238 584 223.5 596.5Q209 609 200.5 625.5Q192 642 189 660L197 694H255Q256 668 271 654Q286 640 313 640Q368 640 384 694H450L440 652Q433 637 422 622Q411 607 394.5 595Q378 583 356.5 575.5Q335 568 308 568Z" glyph-name="breve" horiz-adv-x="446" unicode="&#728;" /><glyph d="M79 309H156V-49H79ZM79 741H156V389H79Z" glyph-name="brokenbar" horiz-adv-x="195" unicode="&#166;" /><glyph d="M171 162Q121 162 87 191.5Q53 221 53 272Q53 305 64.5 332Q76 359 96 377.5Q116 396 142.5 406Q169 416 198 416Q247 416 280.5 387Q314 358 314 308Q314 273 303 246Q292 219 272.5 200.5Q253 182 227 172Q201 162 171 162Z" glyph-name="bullet" horiz-adv-x="354" unicode="&#8226;" /><glyph d="M247 -6Q142 -6 90 48.5Q38 103 38 191Q38 264 62 326Q86 388 128 433.5Q170 479 227.5 504.5Q285 530 352 530Q409 530 446.5 521Q484 512 512 498L487 393H424Q422 431 402 445.5Q382 460 346 460Q299 460 262.5 437.5Q226 415 200.5 377Q175 339 161.5 290Q148 241 148 189Q148 132 173 98Q198 64 253 64Q279 64 298.5 69Q318 74 332.5 82.5Q347 91 357.5 101Q368 111 376 122H435L415 38Q401 30 385 22.5Q369 15 349 8.5Q329 2 304 -2Q279 -6 247 -6Z" glyph-name="c" horiz-adv-x="513" unicode="c" /><glyph d="M438 670 346 567H254L195 670L202 700H243L307 631L399 700H445Z" glyph-name="caron" horiz-adv-x="446" unicode="&#711;" /><glyph d="M174 -175Q144 -175 126 -169.5Q108 -164 95 -157L106 -110H136Q140 -116 149 -121Q158 -126 173 -126Q212 -126 212 -97Q212 -86 202.5 -78.5Q193 -71 172 -71H156L172 2Q121 15 90 48Q38 103 38 191Q38 264 62 326Q86 388 128 433.5Q170 479 227.5 504.5Q285 530 352 530Q409 530 446.5 521Q484 512 512 498L487 393H424Q422 431 402 445.5Q382 460 346 460Q299 460 262.5 437.5Q226 415 200.5 377Q175 339 161.5 290Q148 241 148 189Q148 132 173 98Q198 64 253 64Q279 64 298.5 69Q318 74 332.5 82.5Q347 91 357.5 101Q368 111 376 122H435L415 38Q401 30 385 22.5Q369 15 349 8.5Q329 2 304 -2Q279 -6 247 -6Q234 -6 221 -5L215 -32Q248 -34 265.5 -51Q283 -68 283 -95Q283 -133 253.5 -154Q224 -175 174 -175Z" glyph-name="ccedilla" horiz-adv-x="513" unicode="&#231;" /><glyph d="M127 -175Q97 -175 79 -169.5Q61 -164 48 -157L59 -110H89Q93 -116 102 -121Q111 -126 126 -126Q165 -126 165 -97Q165 -86 155.5 -78.5Q146 -71 125 -71H109L125 0H176L168 -32Q201 -34 218.5 -51Q236 -68 236 -95Q236 -133 206.5 -154Q177 -175 127 -175Z" glyph-name="cedilla" horiz-adv-x="446" unicode="&#184;" /><glyph d="M207 -2Q123 9 80.5 61.5Q38 114 38 193Q38 264 60 323.5Q82 383 121 427Q160 471 213.5 497.5Q267 524 330 529L344 587H407L393 529Q438 527 468.5 518Q499 509 523 498L498 393H436Q433 429 418 442.5Q403 456 377 458L286 64Q326 69 349 85.5Q372 102 387 120H444L425 38Q399 24 363 10.5Q327 -3 270 -5L248 -102H184ZM313 456Q274 448 243 423.5Q212 399 190.5 363.5Q169 328 158 283.5Q147 239 147 190Q147 141 165 109Q183 77 223 68Z" glyph-name="cent" horiz-adv-x="524" unicode="&#162;" /><glyph d="M179 597 271 700H363L422 597L415 567H374L310 636L218 567H172Z" glyph-name="circumflex" horiz-adv-x="446" unicode="&#710;" /><glyph d="M61 -5Q34 -5 17 12.5Q0 30 0 56Q0 84 20.5 103Q41 122 68 122Q96 122 113 103.5Q130 85 130 60Q130 32 109.5 13.5Q89 -5 61 -5ZM130 292Q103 292 86 309.5Q69 327 69 353Q69 381 89.5 400Q110 419 137 419Q165 419 182 400.5Q199 382 199 357Q199 329 178.5 310.5Q158 292 130 292Z" glyph-name="colon" horiz-adv-x="224" unicode=":" /><glyph d="M-32 -53Q-3 -49 16.5 -36.5Q36 -24 36 -6Q36 2 31 5.5Q26 9 17 16Q-2 30 -2 55Q-2 85 17.5 103.5Q37 122 64 122Q90 122 109 104Q128 86 128 55Q128 -19 80 -58.5Q32 -98 -43 -103Z" glyph-name="comma" horiz-adv-x="221" unicode="," /><glyph d="M419 -7Q348 -7 284 16.5Q220 40 172 85Q124 130 95.5 196.5Q67 263 67 350Q67 437 95.5 503.5Q124 570 172 615Q220 660 284 683.5Q348 707 419 707Q491 707 555 683.5Q619 660 667 615Q715 570 743.5 503.5Q772 437 772 350Q772 263 743.5 196.5Q715 130 667 85Q619 40 555 16.5Q491 -7 419 -7ZM419 30Q484 30 540.5 51Q597 72 638.5 113Q680 154 704 213.5Q728 273 728 350Q728 427 704 487Q680 547 638.5 587.5Q597 628 540.5 649Q484 670 419 670Q354 670 298 649Q242 628 200.5 587.5Q159 547 135 487Q111 427 111 350Q111 273 135 213.5Q159 154 200.5 113Q242 72 298 51Q354 30 419 30ZM426 155Q338 155 287 204Q236 253 236 350Q236 398 250 435Q264 472 289 497Q314 522 348.5 534.5Q383 547 423 547Q452 547 470 542Q488 537 502 531Q510 531 512 543H564V410H509L501 463Q488 474 473 482Q458 490 430 490Q387 490 356.5 458Q326 426 326 353Q326 211 432 211Q467 211 489.5 223.5Q512 236 527 256H568V200Q545 180 509.5 167.5Q474 155 426 155Z" glyph-name="copyright" horiz-adv-x="797" unicode="&#169;" /><glyph d="M194 -6Q120 -6 77 36Q34 78 34 166Q34 202 41 240.5Q48 279 61.5 315Q75 351 94 383.5Q113 416 136 441Q175 484 225.5 507Q276 530 329 530Q382 530 412.5 515.5Q443 501 464 481L500 634H423L438 700H602Q623 700 617 673L483 97Q480 84 488 74Q496 64 509 64H537L525 8Q513 2 497.5 -2Q482 -6 465 -6Q419 -6 395 17Q371 40 378 88Q343 46 297 20Q251 -6 194 -6ZM228 62Q249 62 270.5 69.5Q292 77 312.5 89.5Q333 102 352 118Q371 134 388 152L451 427Q436 438 412.5 447Q389 456 347 456Q296 456 258 430Q220 404 195 363Q170 322 157.5 271Q145 220 145 170Q145 114 167.5 88Q190 62 228 62Z" glyph-name="d" horiz-adv-x="614" unicode="d" /><glyph d="M176 251 196 344 266 458 115 429 85 453 99 517 141 536 273 489 263 601 277 658 304 700H373L383 650L370 592L307 486L458 516L490 491L475 427L433 408L301 456L316 335L295 243L190 -49H147Z" glyph-name="dagger" horiz-adv-x="477" unicode="&#8224;" /><glyph d="M124 3 137 58 199 164 48 134 16 158 31 222 73 242 204 195 188 286 208 375 266 459 117 429 85 454 99 519 142 537 274 490 264 602 277 657 305 700H374L383 648L370 593L308 486L459 517L491 493L477 429L434 409L303 456L319 365L299 277L241 192L390 222L423 197L408 132L365 114L233 161L243 49L230 -6L203 -49H134Z" glyph-name="daggerdbl" horiz-adv-x="477" unicode="&#8225;" /><glyph d="M254 436Q226 436 202 445.5Q178 455 160 472Q142 489 132 512.5Q122 536 122 565Q122 598 134 624Q146 650 166.5 668Q187 686 213 696Q239 706 267 706Q295 706 319.5 696.5Q344 687 362 669.5Q380 652 390 628Q400 604 400 576Q400 543 388 517Q376 491 355.5 473Q335 455 308.5 445.5Q282 436 254 436ZM257 488Q291 488 315 511.5Q339 535 339 576Q339 611 318 632.5Q297 654 265 654Q231 654 208 630.5Q185 607 185 566Q185 531 205 509.5Q225 488 257 488Z" glyph-name="degree" horiz-adv-x="379" unicode="&#176;" /><glyph d="M221 580Q196 580 180.5 596Q165 612 165 635Q165 661 183.5 678Q202 695 227 695Q252 695 267.5 678.5Q283 662 283 639Q283 613 264 596.5Q245 580 221 580ZM392 580Q368 580 352.5 596Q337 612 337 635Q337 661 355.5 678Q374 695 398 695Q423 695 438.5 678.5Q454 662 454 639Q454 613 435 596.5Q416 580 392 580Z" glyph-name="dieresis" horiz-adv-x="446" unicode="&#168;" /><glyph d="M252 117Q225 117 208.5 134.5Q192 152 192 178Q192 205 213 223.5Q234 242 261 242Q288 242 305 224Q322 206 321 181Q320 153 299.5 135Q279 117 252 117ZM315 449Q287 449 270.5 466.5Q254 484 255 510Q256 537 276.5 555.5Q297 574 324 574Q351 574 368 556Q385 538 384 513Q383 485 362 467Q341 449 315 449ZM55 305 74 386H520L501 305Z" glyph-name="divide" horiz-adv-x="536" unicode="&#247;" /><glyph d="M172 -5Q115 -1 71.5 11.5Q28 24 -5 39L26 171H94Q95 146 99.5 127.5Q104 109 115 96.5Q126 84 144 77Q162 70 189 67L247 321Q217 336 191 352Q165 368 145.5 388Q126 408 115 435.5Q104 463 104 502Q104 544 119 580.5Q134 617 164 644.5Q194 672 239.5 688.5Q285 705 345 706L358 764H422L408 704Q453 700 490.5 690Q528 680 561 669L531 538H468Q466 580 449.5 602.5Q433 625 391 630L337 397Q370 381 398.5 365.5Q427 350 448 329.5Q469 309 481 281Q493 253 493 213Q493 165 476.5 125.5Q460 86 427.5 57Q395 28 347 11.5Q299 -5 236 -7L214 -102H150ZM387 196Q387 233 365.5 253.5Q344 274 305 294L253 67Q316 72 351.5 104Q387 136 387 196ZM203 519Q203 482 222 462.5Q241 443 279 423L328 635Q265 630 234 598.5Q203 567 203 519Z" glyph-name="dollar" horiz-adv-x="550" unicode="$" /><glyph d="M307 579Q281 579 265 596.5Q249 614 249 638Q249 664 268 682Q287 700 313 700Q339 700 356 683Q373 666 373 642Q373 615 353 597Q333 579 307 579Z" glyph-name="dotaccent" horiz-adv-x="446" unicode="&#729;" /><glyph d="M138 -6Q86 -6 68 24Q50 54 61 102L135 421Q138 434 131 445Q124 456 111 456H73L86 515Q98 519 119 524Q140 529 173 529Q218 529 237.5 504.5Q257 480 245 430L169 97Q166 84 173.5 74Q181 64 194 64H224L212 8Q199 2 180 -2Q161 -6 138 -6Z" glyph-name="dotlessi" horiz-adv-x="301" unicode="&#305;" /><glyph d="M247 -6Q143 -6 91 51Q39 108 39 201Q39 270 63 330Q87 390 128.5 434.5Q170 479 225 504.5Q280 530 342 530Q417 530 463 496.5Q509 463 509 400Q509 350 485 316.5Q461 283 415.5 261.5Q370 240 303 230Q236 220 149 217Q148 189 151 161.5Q154 134 164.5 112Q175 90 196 76.5Q217 63 253 63Q279 63 298.5 68Q318 73 333 81.5Q348 90 359.5 100.5Q371 111 380 122H441L421 38Q395 23 353.5 8.5Q312 -6 247 -6ZM156 284Q284 289 343.5 313.5Q403 338 403 395Q403 430 384.5 446.5Q366 463 334 463Q297 463 267.5 448.5Q238 434 216 409.5Q194 385 179 352.5Q164 320 156 284Z" glyph-name="e" horiz-adv-x="530" unicode="e" /><glyph d="M364 700H475L465 661L363 567H300ZM247 -6Q143 -6 91 51Q39 108 39 201Q39 270 63 330Q87 390 128.5 434.5Q170 479 225 504.5Q280 530 342 530Q417 530 463 496.5Q509 463 509 400Q509 350 485 316.5Q461 283 415.5 261.5Q370 240 303 230Q236 220 149 217Q148 189 151 161.5Q154 134 164.5 112Q175 90 196 76.5Q217 63 253 63Q279 63 298.5 68Q318 73 333 81.5Q348 90 359.5 100.5Q371 111 380 122H441L421 38Q395 23 353.5 8.5Q312 -6 247 -6ZM156 284Q284 289 343.5 313.5Q403 338 403 395Q403 430 384.5 446.5Q366 463 334 463Q297 463 267.5 448.5Q238 434 216 409.5Q194 385 179 352.5Q164 320 156 284Z" glyph-name="eacute" horiz-adv-x="530" unicode="&#233;" /><glyph d="M226 597 318 700H410L469 597L462 567H421L357 636L265 567H219ZM247 -6Q143 -6 91 51Q39 108 39 201Q39 270 63 330Q87 390 128.5 434.5Q170 479 225 504.5Q280 530 342 530Q417 530 463 496.5Q509 463 509 400Q509 350 485 316.5Q461 283 415.5 261.5Q370 240 303 230Q236 220 149 217Q148 189 151 161.5Q154 134 164.5 112Q175 90 196 76.5Q217 63 253 63Q279 63 298.5 68Q318 73 333 81.5Q348 90 359.5 100.5Q371 111 380 122H441L421 38Q395 23 353.5 8.5Q312 -6 247 -6ZM156 284Q284 289 343.5 313.5Q403 338 403 395Q403 430 384.5 446.5Q366 463 334 463Q297 463 267.5 448.5Q238 434 216 409.5Q194 385 179 352.5Q164 320 156 284Z" glyph-name="ecircumflex" horiz-adv-x="530" unicode="&#234;" /><glyph d="M267 580Q242 580 226.5 596Q211 612 211 635Q211 661 229.5 678Q248 695 273 695Q298 695 313.5 678.5Q329 662 329 639Q329 613 310 596.5Q291 580 267 580ZM438 580Q414 580 398.5 596Q383 612 383 635Q383 661 401.5 678Q420 695 444 695Q469 695 484.5 678.5Q500 662 500 639Q500 613 481 596.5Q462 580 438 580ZM247 -6Q143 -6 91 51Q39 108 39 201Q39 270 63 330Q87 390 128.5 434.5Q170 479 225 504.5Q280 530 342 530Q417 530 463 496.5Q509 463 509 400Q509 350 485 316.5Q461 283 415.5 261.5Q370 240 303 230Q236 220 149 217Q148 189 151 161.5Q154 134 164.5 112Q175 90 196 76.5Q217 63 253 63Q279 63 298.5 68Q318 73 333 81.5Q348 90 359.5 100.5Q371 111 380 122H441L421 38Q395 23 353.5 8.5Q312 -6 247 -6ZM156 284Q284 289 343.5 313.5Q403 338 403 395Q403 430 384.5 446.5Q366 463 334 463Q297 463 267.5 448.5Q238 434 216 409.5Q194 385 179 352.5Q164 320 156 284Z" glyph-name="edieresis" horiz-adv-x="530" unicode="&#235;" /><glyph d="M247 -6Q143 -6 91 51Q39 108 39 201Q39 270 63 330Q87 390 128.5 434.5Q170 479 225 504.5Q280 530 342 530Q417 530 463 496.5Q509 463 509 400Q509 350 485 316.5Q461 283 415.5 261.5Q370 240 303 230Q236 220 149 217Q148 189 151 161.5Q154 134 164.5 112Q175 90 196 76.5Q217 63 253 63Q279 63 298.5 68Q318 73 333 81.5Q348 90 359.5 100.5Q371 111 380 122H441L421 38Q395 23 353.5 8.5Q312 -6 247 -6ZM156 284Q284 289 343.5 313.5Q403 338 403 395Q403 430 384.5 446.5Q366 463 334 463Q297 463 267.5 448.5Q238 434 216 409.5Q194 385 179 352.5Q164 320 156 284ZM233 661 242 700H336L378 567H317Z" glyph-name="egrave" horiz-adv-x="530" unicode="&#232;" /><glyph d="M266 -7Q204 -7 159.5 7Q115 21 86.5 45Q58 69 44 101Q30 133 30 170Q30 251 82.5 307Q135 363 223 381V383Q181 400 159.5 431Q138 462 138 504Q138 550 157.5 587.5Q177 625 210.5 651.5Q244 678 288 692.5Q332 707 381 707Q432 707 471 695Q510 683 535.5 661.5Q561 640 574 611Q587 582 587 548Q587 482 545.5 434.5Q504 387 432 371V368Q486 351 514.5 314.5Q543 278 543 223Q543 171 522.5 128.5Q502 86 465 56Q428 26 377 9.5Q326 -7 266 -7ZM271 68Q308 68 337 80Q366 92 386.5 113.5Q407 135 418 164Q429 193 429 227Q429 275 400.5 306Q372 337 304 337Q269 337 239.5 324.5Q210 312 189 290.5Q168 269 156.5 240Q145 211 145 177Q145 129 175 98.5Q205 68 271 68ZM347 410Q404 410 440 445Q476 480 476 540Q476 579 452.5 604.5Q429 630 377 630Q319 630 283.5 594Q248 558 248 498Q248 459 271 434.5Q294 410 347 410Z" glyph-name="eight" horiz-adv-x="603" unicode="8" /><glyph d="M418 -5Q391 -5 374 12.5Q357 30 357 56Q357 84 377.5 103Q398 122 425 122Q453 122 470 103.5Q487 85 487 60Q487 32 466.5 13.5Q446 -5 418 -5ZM239 -5Q212 -5 195 12.5Q178 30 178 56Q178 84 198.5 103Q219 122 246 122Q274 122 291 103.5Q308 85 308 60Q308 32 287.5 13.5Q267 -5 239 -5ZM60 -5Q33 -5 16 12.5Q-1 30 -1 56Q-1 84 19.5 103Q40 122 67 122Q95 122 112 103.5Q129 85 129 60Q129 32 108.5 13.5Q88 -5 60 -5Z" glyph-name="ellipsis" horiz-adv-x="579" unicode="&#8230;" /><glyph d="M62 322H671L654 248H45Z" glyph-name="emdash" horiz-adv-x="704" unicode="&#8212;" /><glyph d="M62 322H414L397 248H45Z" glyph-name="endash" horiz-adv-x="447" unicode="&#8211;" /><glyph d="M47 259H482L463 178H28ZM90 451H525L507 370H72Z" glyph-name="equal" horiz-adv-x="527" unicode="=" /><glyph d="M282 608Q268 614 253 619.5Q238 625 221 630L238 700H275Q298 692 320 683.5Q342 675 362 664L414 700H481L476 680L410 634Q476 585 511.5 513Q547 441 547 342Q547 258 524.5 193.5Q502 129 463 85Q424 41 371 18Q318 -5 257 -5Q205 -5 164 10.5Q123 26 95 54.5Q67 83 52.5 123Q38 163 38 213Q38 277 59.5 332.5Q81 388 117.5 428.5Q154 469 202 492Q250 515 303 515Q341 515 372 503Q403 491 426 463Q394 537 333 579L275 539H207L212 559ZM261 64Q303 64 335.5 85.5Q368 107 390.5 142Q413 177 424.5 222.5Q436 268 436 316Q436 446 318 446Q280 446 248.5 426Q217 406 194.5 372Q172 338 160 293.5Q148 249 148 200Q148 134 177 99Q206 64 261 64Z" glyph-name="eth" horiz-adv-x="581" unicode="&#240;" /><glyph d="M139 634 155 700H271L256 634L119 180H57ZM60 -5Q33 -5 16 12.5Q-1 30 -1 56Q-1 84 19.5 103Q40 122 67 122Q95 122 112 103.5Q129 85 129 60Q129 32 108.5 13.5Q88 -5 60 -5Z" glyph-name="exclam" horiz-adv-x="221" unicode="!" /><glyph d="M106 -8 90 -74H-26L-11 -8L126 446H188ZM185 631Q212 631 229 613.5Q246 596 246 570Q246 542 225.5 523Q205 504 178 504Q150 504 133 522.5Q116 541 116 566Q116 594 136.5 612.5Q157 631 185 631Z" glyph-name="exclamdown" horiz-adv-x="221" unicode="&#161;" /><glyph d="M-36 -102Q-12 -94 10 -70Q32 -46 44 7L142 456H74L89 524H156L166 569Q183 643 226 675.5Q269 708 336 708Q367 708 387.5 703.5Q408 699 421 694L408 634H359Q324 634 304 620.5Q284 607 274 566L265 524H365L350 456H250L150 5Q134 -67 97.5 -106Q61 -145 17 -162H-50Z" glyph-name="f" horiz-adv-x="344" unicode="f" /><glyph d="M233 -102Q257 -94 279 -70Q301 -46 313 7L410 456H250L150 5Q134 -67 97.5 -106Q61 -145 17 -162H-50L-36 -102Q-12 -94 10.5 -70Q33 -46 44 7L142 456H74L89 524H156L165 565Q183 640 225 671.5Q267 703 334 703Q363 703 382 698.5Q401 694 413 689L400 629H357Q322 629 302 616Q282 603 273 561L265 524H425L435 569Q452 643 495 675.5Q538 708 605 708Q636 708 656.5 703.5Q677 699 690 694L677 634H628Q593 634 573 620.5Q553 607 543 566L534 524H634L619 456H519L419 5Q403 -67 366.5 -106Q330 -145 286 -162H219Z" glyph-name="f_f" horiz-adv-x="613" unicode="&#64256;" /><glyph d="M678 -6Q626 -6 607.5 24Q589 54 601 102L683 456H519L419 5Q403 -67 366.5 -106Q330 -145 286 -162H219L233 -102Q257 -94 279 -70Q301 -46 313 7L411 456H250L150 5Q134 -67 97.5 -106Q61 -145 17 -162H-50L-36 -102Q-12 -94 10.5 -70Q33 -46 44 7L142 456H74L89 524H156L165 565Q183 640 225 671.5Q267 703 334 703Q363 703 382 698.5Q401 694 413 689L400 629H357Q322 629 302 616Q282 603 273 561L265 524H425L435 569Q452 643 495 675.5Q538 708 605 708Q636 708 654.5 703.5Q673 699 686 694L673 634H628Q593 634 573 620.5Q553 607 543 566L534 524H717Q759 524 778 502Q797 480 785 430L709 97Q706 84 713.5 74Q721 64 734 64H764L752 8Q739 2 720 -2Q701 -6 678 -6ZM773 579Q747 579 731 596.5Q715 614 715 638Q715 664 734 682Q753 700 779 700Q805 700 822 683Q839 666 839 642Q839 615 819 597Q799 579 773 579Z" glyph-name="f_f_i" horiz-adv-x="841" unicode="&#64259;" /><glyph d="M681 -6Q627 -6 609 24Q591 54 602 102L724 634H630Q594 634 572.5 620Q551 606 542 563L534 524H634L619 456H519L419 5Q403 -67 366.5 -106Q330 -145 286 -162H219L233 -102Q257 -94 279 -70Q301 -46 313 7L411 456H250L150 5Q134 -67 97.5 -106Q61 -145 17 -162H-50L-36 -102Q-12 -94 10.5 -70Q33 -46 44 7L142 456H74L89 524H156L165 565Q183 640 225 671.5Q267 703 334 703Q363 703 382 698.5Q401 694 413 689L400 629H357Q322 629 302 616Q282 603 273 561L265 524H425L435 568Q444 606 459 633Q474 660 497 676.5Q520 693 553.5 700.5Q587 708 634 708Q651 708 675 705.5Q699 703 720 700H827Q848 700 842 673L709 97Q705 84 713 74Q721 64 734 64H768L756 8Q742 3 722.5 -1.5Q703 -6 681 -6Z" glyph-name="f_f_l" horiz-adv-x="844" unicode="&#64260;" /><glyph d="M409 -6Q357 -6 338.5 24Q320 54 332 102L414 456H250L150 5Q134 -67 97.5 -106Q61 -145 17 -162H-50L-36 -102Q-12 -94 10 -70Q32 -46 44 7L142 456H74L89 524H156L166 569Q183 643 226 675.5Q269 708 336 708Q367 708 385.5 703.5Q404 699 417 694L404 634H359Q324 634 304 620.5Q284 607 274 566L265 524H448Q490 524 509 502Q528 480 516 430L440 97Q437 84 444.5 74Q452 64 465 64H495L483 8Q470 2 451 -2Q432 -6 409 -6ZM504 579Q478 579 462 596.5Q446 614 446 638Q446 664 465 682Q484 700 510 700Q536 700 553 683Q570 666 570 642Q570 615 550 597Q530 579 504 579Z" glyph-name="f_i" horiz-adv-x="572" unicode="&#64257;" /><glyph d="M412 -6Q358 -6 340 24Q322 54 333 102L455 634H361Q325 634 303.5 620Q282 606 273 563L265 524H365L350 456H250L150 5Q134 -67 97.5 -106Q61 -145 17 -162H-50L-36 -102Q-12 -94 10 -70Q32 -46 44 7L142 456H74L89 524H156L166 568Q175 606 190 633Q205 660 228 676.5Q251 693 284.5 700.5Q318 708 365 708Q382 708 406 705.5Q430 703 451 700H558Q579 700 573 673L440 97Q436 84 444 74Q452 64 465 64H499L487 8Q473 3 453.5 -1.5Q434 -6 412 -6Z" glyph-name="f_l" horiz-adv-x="577" unicode="&#64258;" /><glyph d="M191 -7Q123 -7 74 4.5Q25 16 -12 37L15 154H83Q82 109 112 89Q142 69 196 69Q234 69 266.5 81Q299 93 323 116Q347 139 360.5 173Q374 207 374 252Q374 307 348 334.5Q322 362 266 362Q218 362 187.5 346Q157 330 137 307H65L156 700H566L531 546H455L458 614H220L170 396H172Q193 414 226 427Q259 440 311 440Q350 440 383.5 429Q417 418 441 396Q465 374 478.5 341Q492 308 492 265Q492 204 470.5 154Q449 104 410 68Q371 32 315.5 12.5Q260 -7 191 -7Z" glyph-name="five" horiz-adv-x="542" unicode="5" /><glyph d="M174 315Q133 315 103.5 322.5Q74 330 54 340L71 412H118Q121 389 136 379.5Q151 370 174 370Q212 370 237 392Q262 414 262 456Q262 480 248 494Q234 508 208 508Q184 508 168.5 499.5Q153 491 144 480H93L143 700H383L360 605H309L310 640H192L169 539H171Q184 548 201.5 553.5Q219 559 244 559Q289 559 317.5 534Q346 509 346 464Q346 431 333.5 403.5Q321 376 298.5 356.5Q276 337 244.5 326Q213 315 174 315ZM674 729H745L104 -34H31ZM532 -5Q460 -5 425 23Q390 51 390 93Q390 137 419.5 166Q449 195 498 205V207Q475 215 461.5 232Q448 249 448 271Q448 297 459.5 318Q471 339 491 354Q511 369 537 377Q563 385 592 385Q653 385 685 359Q717 333 717 295Q717 260 693 235Q669 210 630 201V199Q659 191 676 170.5Q693 150 693 123Q693 65 649 30Q605 -5 532 -5ZM574 226Q603 226 620 241.5Q637 257 637 287Q637 304 624.5 317Q612 330 588 330Q560 330 543 312.5Q526 295 526 266Q526 248 538.5 237Q551 226 574 226ZM535 49Q571 49 591.5 71.5Q612 94 612 126Q612 149 597.5 163.5Q583 178 551 178Q518 178 495.5 155.5Q473 133 473 101Q473 78 488.5 63.5Q504 49 535 49Z" glyph-name="fiveeighths" horiz-adv-x="771" unicode="&#8541;" /><glyph d="M159 437 190 570Q207 644 254 676Q301 708 367 708Q397 708 416 703.5Q435 699 447 694L434 634H388Q355 634 334 619.5Q313 605 304 566L274 437H377L360 363H256L183 47Q170 -9 137 -43.5Q104 -78 51 -95H-9L5 -32Q28 -24 45.5 -5.5Q63 13 72 54L142 363H78L95 437Z" glyph-name="florin" horiz-adv-x="392" unicode="&#402;" /><glyph d="M224 64H275Q286 64 298 74Q310 84 313 95L331 173H17L38 264L458 700H564L460 248H542L524 173H443L425 95Q423 84 427.5 74Q432 64 443 64H497L483 0H210ZM348 248 420 568H417L115 252V248Z" glyph-name="four" horiz-adv-x="579" unicode="4" /><glyph d="M413 729H484L-157 -34H-230Z" glyph-name="fraction" horiz-adv-x="213" unicode="&#8260;" /><glyph d="M175 -172Q67 -172 15.5 -139Q-36 -106 -36 -58Q-36 -32 -26 -13Q-16 6 1.5 20.5Q19 35 41.5 45.5Q64 56 89 65Q74 72 62.5 89.5Q51 107 51 130Q51 166 74.5 192Q98 218 131 238Q109 255 95 281.5Q81 308 81 342Q81 384 98 419Q115 454 144 478.5Q173 503 211 516.5Q249 530 291 530Q321 530 348 524H531L516 456H475Q468 456 461 451Q454 446 452 438Q458 426 461.5 413Q465 400 465 385Q465 342 448 307.5Q431 273 402.5 249Q374 225 336.5 212.5Q299 200 257 200Q231 200 209 204Q187 208 170 215Q156 205 146.5 193.5Q137 182 137 168Q137 136 178 136H301Q371 136 405 103Q439 70 439 16Q439 -23 424.5 -57.5Q410 -92 378.5 -117.5Q347 -143 297 -157.5Q247 -172 175 -172ZM177 -103Q221 -103 251.5 -96Q282 -89 301 -76.5Q320 -64 328.5 -47.5Q337 -31 337 -13Q337 42 260 42H122Q95 27 78.5 7Q62 -13 62 -39Q62 -66 87.5 -84.5Q113 -103 177 -103ZM256 262Q278 262 298.5 271.5Q319 281 334 297.5Q349 314 358 337.5Q367 361 367 390Q367 423 347 443.5Q327 464 289 464Q266 464 246 454.5Q226 445 211.5 428Q197 411 188.5 387.5Q180 364 180 336Q180 306 198.5 284Q217 262 256 262Z" glyph-name="g" horiz-adv-x="510" unicode="g" /><glyph d="M-55 -102Q-29 -93 -8 -70Q13 -47 25 7L135 508Q145 553 165.5 589.5Q186 626 219 652.5Q252 679 297.5 693.5Q343 708 402 708Q442 708 476 699.5Q510 691 535 675.5Q560 660 574.5 636.5Q589 613 589 583Q589 539 559 507Q529 475 482 441Q444 414 417 393.5Q390 373 390 352Q390 344 394.5 337.5Q399 331 408.5 323.5Q418 316 433 306.5Q448 297 469 283Q486 271 503.5 258.5Q521 246 534.5 230Q548 214 556.5 194Q565 174 565 148Q565 114 551.5 86Q538 58 513 37.5Q488 17 452.5 5.5Q417 -6 374 -6Q321 -6 284.5 5Q248 16 223 31L246 130H306Q306 92 324 76.5Q342 61 382 61Q417 61 441.5 78Q466 95 466 127Q466 142 459 153.5Q452 165 441 175Q430 185 415 194.5Q400 204 384 214Q342 241 318.5 265.5Q295 290 295 328Q295 371 324 402Q353 433 393 465Q410 479 426 491.5Q442 504 454.5 517Q467 530 474.5 543.5Q482 557 482 572Q482 601 460 618Q438 635 395 635Q327 635 291.5 598.5Q256 562 243 504L132 5Q116 -67 79.5 -106Q43 -145 -2 -162H-69Z" glyph-name="germandbls" horiz-adv-x="629" unicode="&#223;" /><glyph d="M186 661 195 700H289L331 567H270Z" glyph-name="grave" horiz-adv-x="446" unicode="`" /><glyph d="M29 182 354 327V329L100 484L117 561H145L471 360L454 287L38 98H10Z" glyph-name="greater" horiz-adv-x="492" unicode="&gt;" /><glyph d="M46 236 60 296 244 477H308L298 437L146 257V255L217 84L208 43H154ZM239 236 254 296 437 477H501L492 437L339 257V255L410 84L401 43H347Z" glyph-name="guillemotleft" horiz-adv-x="504" unicode="&#171;" /><glyph d="M205 82 358 262V265L287 436L296 477H350L458 283L444 223L260 43H196ZM11 82 165 262V265L93 436L102 477H156L264 283L250 223L67 43H2Z" glyph-name="guillemotright" horiz-adv-x="504" unicode="&#187;" /><glyph d="M46 236 61 296 246 477H311L301 437L146 257V255L219 84L210 43H157Z" glyph-name="guilsinglleft" horiz-adv-x="313" unicode="&#8249;" /><glyph d="M12 82 167 262V265L94 436L103 477H156L267 283L252 223L67 43H2Z" glyph-name="guilsinglright" horiz-adv-x="313" unicode="&#8250;" /><glyph d="M459 -6Q408 -6 389.5 23.5Q371 53 382 101L445 374Q461 445 402 445Q358 445 314 422.5Q270 400 228 368L144 0H62Q51 0 44.5 8.5Q38 17 42 32L174 606Q176 615 170.5 624.5Q165 634 155 634H117L132 700H284Q304 700 298 673L241 428Q262 447 287.5 465.5Q313 484 341.5 498Q370 512 400 521Q430 530 461 530Q524 530 548 493Q572 456 558 395L490 98Q486 84 494 74Q502 64 515 64H544L531 8Q519 3 500.5 -1.5Q482 -6 459 -6Z" glyph-name="h" horiz-adv-x="620" unicode="h" /><glyph d="M380 700H471L462 661L385 567H325ZM235 700H326L317 661L240 567H180Z" glyph-name="hungarumlaut" horiz-adv-x="446" unicode="&#733;" /><glyph d="M66 339H276L256 256H46Z" glyph-name="hyphen" horiz-adv-x="305" unicode="-" /><glyph d="M138 -6Q86 -6 68 24Q50 54 61 102L135 421Q138 434 131 445Q124 456 111 456H73L86 515Q98 519 119 524Q140 529 173 529Q218 529 237.5 504.5Q257 480 245 430L169 97Q166 84 173.5 74Q181 64 194 64H224L212 8Q199 2 180 -2Q161 -6 138 -6ZM233 579Q207 579 191 596.5Q175 614 175 638Q175 664 194 682Q213 700 239 700Q265 700 282 683Q299 666 299 642Q299 615 279 597Q259 579 233 579Z" glyph-name="i" horiz-adv-x="301" unicode="i" /><glyph d="M234 701H345L335 662L233 568H170ZM138 -6Q86 -6 68 24Q50 54 61 102L135 421Q138 434 131 445Q124 456 111 456H73L86 515Q98 519 119 524Q140 529 173 529Q218 529 237.5 504.5Q257 480 245 430L169 97Q166 84 173.5 74Q181 64 194 64H224L212 8Q199 2 180 -2Q161 -6 138 -6Z" glyph-name="iacute" horiz-adv-x="301" unicode="&#237;" /><glyph d="M88 598 180 701H272L331 598L324 568H283L219 637L127 568H81ZM138 -6Q86 -6 68 24Q50 54 61 102L135 421Q138 434 131 445Q124 456 111 456H73L86 515Q98 519 119 524Q140 529 173 529Q218 529 237.5 504.5Q257 480 245 430L169 97Q166 84 173.5 74Q181 64 194 64H224L212 8Q199 2 180 -2Q161 -6 138 -6Z" glyph-name="icircumflex" horiz-adv-x="301" unicode="&#238;" /><glyph d="M123 581Q98 581 82.5 597Q67 613 67 636Q67 662 85.5 679Q104 696 129 696Q154 696 169.5 679.5Q185 663 185 640Q185 614 166 597.5Q147 581 123 581ZM294 581Q270 581 254.5 597Q239 613 239 636Q239 662 257.5 679Q276 696 300 696Q325 696 340.5 679.5Q356 663 356 640Q356 614 337 597.5Q318 581 294 581ZM138 -6Q86 -6 68 24Q50 54 61 102L135 421Q138 434 131 445Q124 456 111 456H73L86 515Q98 519 119 524Q140 529 173 529Q218 529 237.5 504.5Q257 480 245 430L169 97Q166 84 173.5 74Q181 64 194 64H224L212 8Q199 2 180 -2Q161 -6 138 -6Z" glyph-name="idieresis" horiz-adv-x="301" unicode="&#239;" /><glyph d="M138 -6Q86 -6 68 24Q50 54 61 102L135 421Q138 434 131 445Q124 456 111 456H73L86 515Q98 519 119 524Q140 529 173 529Q218 529 237.5 504.5Q257 480 245 430L169 97Q166 84 173.5 74Q181 64 194 64H224L212 8Q199 2 180 -2Q161 -6 138 -6ZM102 662 111 701H205L247 568H186Z" glyph-name="igrave" horiz-adv-x="301" unicode="&#236;" /><glyph d="M-19 -168Q-48 -168 -67 -163Q-86 -158 -102 -153L-90 -102H-44Q-9 -102 7 -85Q23 -68 31 -30L135 422Q138 436 131 446Q124 456 111 456H73L86 515Q98 519 119 524Q140 529 173 529Q218 529 237 505Q256 481 245 430L139 -37Q123 -108 84 -138Q45 -168 -19 -168ZM233 579Q207 579 191 596.5Q175 614 175 638Q175 664 194 682Q213 700 239 700Q265 700 282 683Q299 666 299 642Q299 615 279 597Q259 579 233 579Z" glyph-name="j" horiz-adv-x="291" unicode="j" /><glyph d="M427 -6Q407 -6 394 -0.5Q381 5 371.5 15Q362 25 355 38.5Q348 52 341 68L274 231Q253 218 231 206Q209 194 186 183L144 0H63Q51 0 45 8.5Q39 17 42 32L174 606Q176 615 170.5 624.5Q165 634 154 634H117L132 700H283Q305 700 298 673L206 270Q250 295 290 325Q330 355 363 388Q396 421 420 455.5Q444 490 456 524H557L545 471Q511 425 463 379Q415 333 357 289L442 96Q448 82 458 73Q468 64 481 64H503L490 9Q480 4 465 -1Q450 -6 427 -6Z" glyph-name="k" horiz-adv-x="556" unicode="k" /><glyph d="M142 -6Q88 -6 69.5 24Q51 54 63 102L179 606Q181 615 175 624.5Q169 634 159 634H117L132 700H288Q309 700 303 673L170 97Q166 84 174 74Q182 64 195 64H229L217 8Q203 3 183.5 -1.5Q164 -6 142 -6Z" glyph-name="l" horiz-adv-x="305" unicode="l" /><glyph d="M53 299 70 372 486 561H514L494 477L169 332V330L424 175L407 98H379Z" glyph-name="less" horiz-adv-x="492" unicode="&lt;" /><glyph d="M142 -6Q88 -6 69.5 24Q51 54 63 102L110 308L38 266L57 346L129 388L179 606Q181 615 175 624.5Q169 634 159 634H117L132 700H288Q309 700 303 673L254 461L328 504L309 423L235 380L170 97Q166 84 174 74Q182 64 195 64H229L217 8Q203 3 183.5 -1.5Q164 -6 142 -6Z" glyph-name="lslash" horiz-adv-x="305" unicode="&#322;" /><glyph d="M754 -6Q702 -6 684 24.5Q666 55 678 104L739 371Q748 410 737 428Q726 446 698 446Q656 446 615.5 423Q575 400 539 371L453 0H372Q361 0 354.5 8.5Q348 17 352 32L430 371Q448 446 387 446Q347 446 306 422.5Q265 399 229 370L144 0H62Q51 0 44.5 8.5Q38 17 42 32L132 421Q134 434 127.5 445Q121 456 107 456H73L86 515Q98 519 117.5 524Q137 529 169 529Q207 529 228.5 506.5Q250 484 240 429Q259 448 282.5 466Q306 484 332 498Q358 512 387 521Q416 530 447 530Q499 530 522.5 501.5Q546 473 545 425Q565 445 588.5 464Q612 483 638.5 497.5Q665 512 694 521Q723 530 755 530Q818 530 842.5 492.5Q867 455 853 395L784 97Q781 84 789 74Q797 64 809 64H839L827 8Q813 3 795 -1.5Q777 -6 754 -6Z" glyph-name="m" horiz-adv-x="915" unicode="m" /><glyph d="M191 667H444L427 595H174Z" glyph-name="macron" horiz-adv-x="446" unicode="&#175;" /><glyph d="M55 305 74 386H520L501 305Z" glyph-name="minus" horiz-adv-x="536" unicode="&#8722;" /><glyph d="M54 189 234 341 116 493 181 545 296 394 474 545 520 488 340 336 457 184 394 132 277 283 100 132Z" glyph-name="multiply" horiz-adv-x="537" unicode="&#215;" /><glyph d="M459 -6Q408 -6 389.5 23.5Q371 53 382 101L445 374Q461 445 403 445Q358 445 314 422.5Q270 400 228 368L144 0H62Q51 0 44.5 8.5Q38 17 42 32L132 421Q134 434 127.5 445Q121 456 107 456H73L86 515Q98 519 118 524Q138 529 169 529Q188 529 203.5 523.5Q219 518 229 505.5Q239 493 242 473Q245 453 240 425Q261 445 286.5 464Q312 483 340.5 497.5Q369 512 399.5 521Q430 530 461 530Q524 530 548 493Q572 456 558 395L490 98Q486 84 494 74Q502 64 515 64H543L531 8Q519 3 500.5 -1.5Q482 -6 459 -6Z" glyph-name="n" horiz-adv-x="620" unicode="n" /><glyph d="M362 706Q470 706 530 643Q590 580 590 459Q590 375 566.5 291.5Q543 208 493.5 142Q444 76 367 34.5Q290 -7 182 -7Q119 -7 82 2.5Q45 12 23 22L42 107H104Q112 96 132.5 82.5Q153 69 194 69Q249 69 293.5 88Q338 107 371.5 142Q405 177 428.5 227.5Q452 278 464 340Q428 305 377.5 284Q327 263 271 263Q230 263 195.5 274Q161 285 136 306Q111 327 97.5 358Q84 389 84 430Q84 487 104 537.5Q124 588 160.5 625.5Q197 663 248.5 684.5Q300 706 362 706ZM357 629Q319 629 290 614.5Q261 600 241.5 575Q222 550 211.5 516Q201 482 201 442Q201 341 311 341Q359 341 400 359Q441 377 472 403Q475 423 476.5 441.5Q478 460 478 474Q478 556 449 592.5Q420 629 357 629Z" glyph-name="nine" horiz-adv-x="611" unicode="9" /><glyph glyph-name="nonbreakingspace" horiz-adv-x="169" unicode="&#160;" /><glyph glyph-name="nonmarkingreturn" horiz-adv-x="169" unicode="" /><glyph d="M459 -6Q408 -6 389.5 23.5Q371 53 382 101L445 374Q461 445 403 445Q358 445 314 422.5Q270 400 228 368L144 0H62Q51 0 44.5 8.5Q38 17 42 32L132 421Q134 434 127.5 445Q121 456 107 456H73L86 515Q98 519 118 524Q138 529 169 529Q188 529 203.5 523.5Q219 518 229 505.5Q239 493 242 473Q245 453 240 425Q261 445 286.5 464Q312 483 340.5 497.5Q369 512 399.5 521Q430 530 461 530Q524 530 548 493Q572 456 558 395L490 98Q486 84 494 74Q502 64 515 64H543L531 8Q519 3 500.5 -1.5Q482 -6 459 -6ZM221 628Q234 651 256 668.5Q278 686 314 686Q332 686 350.5 681Q369 676 386 670Q403 664 418.5 659Q434 654 445 654Q462 654 473.5 664Q485 674 492 690H547L534 634Q521 611 498.5 593.5Q476 576 440 576Q422 576 404 581.5Q386 587 368.5 593.5Q351 600 336 605.5Q321 611 310 611Q293 611 281.5 600.5Q270 590 264 573H209Z" glyph-name="ntilde" horiz-adv-x="620" unicode="&#241;" /><glyph d="M118 220H38L59 308H143L172 417H91L112 505H196L241 700H316L264 505H373L426 700H493L441 505H522L502 417H417L388 308H470L448 220H362L303 0H235L295 220H185L126 0H58ZM320 308 349 417H239L211 308Z" glyph-name="numbersign" horiz-adv-x="513" unicode="#" /><glyph d="M257 -5Q152 -5 95 53Q38 111 38 211Q38 281 61 340Q84 399 123.5 441Q163 483 216 506.5Q269 530 328 530Q432 530 489 471.5Q546 413 546 316Q546 245 524 186.5Q502 128 463 85Q424 42 371 18.5Q318 -5 257 -5ZM261 64Q302 64 334.5 85.5Q367 107 389.5 143Q412 179 424 226Q436 273 436 324Q436 457 324 457Q284 457 251.5 436Q219 415 196 379.5Q173 344 160.5 297.5Q148 251 148 199Q148 133 176.5 98.5Q205 64 261 64Z" glyph-name="o" horiz-adv-x="583" unicode="o" /><glyph d="M371 700H482L472 661L370 567H307ZM257 -5Q152 -5 95 53Q38 111 38 211Q38 281 61 340Q84 399 123.5 441Q163 483 216 506.5Q269 530 328 530Q432 530 489 471.5Q546 413 546 316Q546 245 524 186.5Q502 128 463 85Q424 42 371 18.5Q318 -5 257 -5ZM261 64Q302 64 334.5 85.5Q367 107 389.5 143Q412 179 424 226Q436 273 436 324Q436 457 324 457Q284 457 251.5 436Q219 415 196 379.5Q173 344 160.5 297.5Q148 251 148 199Q148 133 176.5 98.5Q205 64 261 64Z" glyph-name="oacute" horiz-adv-x="583" unicode="&#243;" /><glyph d="M229 597 321 700H413L472 597L465 567H424L360 636L268 567H222ZM257 -5Q152 -5 95 53Q38 111 38 211Q38 281 61 340Q84 399 123.5 441Q163 483 216 506.5Q269 530 328 530Q432 530 489 471.5Q546 413 546 316Q546 245 524 186.5Q502 128 463 85Q424 42 371 18.5Q318 -5 257 -5ZM261 64Q302 64 334.5 85.5Q367 107 389.5 143Q412 179 424 226Q436 273 436 324Q436 457 324 457Q284 457 251.5 436Q219 415 196 379.5Q173 344 160.5 297.5Q148 251 148 199Q148 133 176.5 98.5Q205 64 261 64Z" glyph-name="ocircumflex" horiz-adv-x="583" unicode="&#244;" /><glyph d="M269 580Q244 580 228.5 596Q213 612 213 635Q213 661 231.5 678Q250 695 275 695Q300 695 315.5 678.5Q331 662 331 639Q331 613 312 596.5Q293 580 269 580ZM440 580Q416 580 400.5 596Q385 612 385 635Q385 661 403.5 678Q422 695 446 695Q471 695 486.5 678.5Q502 662 502 639Q502 613 483 596.5Q464 580 440 580ZM257 -5Q152 -5 95 53Q38 111 38 211Q38 281 61 340Q84 399 123.5 441Q163 483 216 506.5Q269 530 328 530Q432 530 489 471.5Q546 413 546 316Q546 245 524 186.5Q502 128 463 85Q424 42 371 18.5Q318 -5 257 -5ZM261 64Q302 64 334.5 85.5Q367 107 389.5 143Q412 179 424 226Q436 273 436 324Q436 457 324 457Q284 457 251.5 436Q219 415 196 379.5Q173 344 160.5 297.5Q148 251 148 199Q148 133 176.5 98.5Q205 64 261 64Z" glyph-name="odieresis" horiz-adv-x="583" unicode="&#246;" /><glyph d="M257 -5Q152 -5 95 53Q38 111 38 211Q38 281 61 340Q84 399 123.5 441Q163 483 216 506.5Q269 530 328 530Q397 530 441.5 500Q486 470 507 418Q545 470 601.5 500Q658 530 727 530Q802 530 848 496.5Q894 463 894 400Q894 350 870 316.5Q846 283 800.5 261.5Q755 240 688 230Q621 220 534 217Q533 189 536 161.5Q539 134 550 112Q561 90 582 76.5Q603 63 638 63Q664 63 683.5 68Q703 73 718 81.5Q733 90 744.5 100.5Q756 111 765 122H826L806 38Q780 23 738.5 8.5Q697 -6 632 -6Q564 -6 521.5 20.5Q479 47 459 94Q423 47 371.5 21Q320 -5 257 -5ZM261 64Q302 64 334.5 85.5Q367 107 389.5 143Q412 179 424 226Q436 273 436 324Q436 457 324 457Q284 457 251.5 436Q219 415 196 379.5Q173 344 160.5 297.5Q148 251 148 199Q148 133 176.5 98.5Q205 64 261 64ZM541 284Q669 289 728.5 313.5Q788 338 788 395Q788 430 769.5 446.5Q751 463 719 463Q682 463 652.5 448.5Q623 434 601 409.5Q579 385 564 352.5Q549 320 541 284Z" glyph-name="oe" horiz-adv-x="915" unicode="&#339;" /><glyph d="M159 -165Q119 -165 98 -147Q77 -129 77 -100Q77 -81 85 -65.5Q93 -50 105 -37.5Q117 -25 132 -15.5Q147 -6 162 0H225Q199 -20 182.5 -37.5Q166 -55 166 -77Q166 -102 201 -102H232L221 -151Q209 -157 193 -161Q177 -165 159 -165Z" glyph-name="ogonek" horiz-adv-x="446" unicode="&#731;" /><glyph d="M257 -5Q152 -5 95 53Q38 111 38 211Q38 281 61 340Q84 399 123.5 441Q163 483 216 506.5Q269 530 328 530Q432 530 489 471.5Q546 413 546 316Q546 245 524 186.5Q502 128 463 85Q424 42 371 18.5Q318 -5 257 -5ZM261 64Q302 64 334.5 85.5Q367 107 389.5 143Q412 179 424 226Q436 273 436 324Q436 457 324 457Q284 457 251.5 436Q219 415 196 379.5Q173 344 160.5 297.5Q148 251 148 199Q148 133 176.5 98.5Q205 64 261 64ZM235 661 244 700H338L380 567H319Z" glyph-name="ograve" horiz-adv-x="583" unicode="&#242;" /><glyph d="M-10 64H69Q80 64 92 74Q104 84 107 95L220 591L130 553H101L116 622L283 700H361L223 95Q221 84 225 74Q229 64 241 64H314L300 0H-24Z" glyph-name="one" horiz-adv-x="396" unicode="1" /><glyph d="M63 368H113Q119 368 125.5 374.5Q132 381 134 386L191 629L135 604H111L124 655L232 700H294L222 386Q220 381 223 374.5Q226 368 232 368H283L272 320H52ZM665 729H736L95 -34H22ZM524 -5Q452 -5 417 23Q382 51 382 93Q382 137 411.5 166Q441 195 490 205V207Q467 215 453.5 232Q440 249 440 271Q440 297 451.5 318Q463 339 483 354Q503 369 529 377Q555 385 584 385Q645 385 677 359Q709 333 709 295Q709 260 685 235Q661 210 622 201V199Q651 191 668 170.5Q685 150 685 123Q685 65 641 30Q597 -5 524 -5ZM566 226Q595 226 612 241.5Q629 257 629 287Q629 304 616.5 317Q604 330 580 330Q552 330 535 312.5Q518 295 518 266Q518 248 530.5 237Q543 226 566 226ZM527 49Q563 49 583.5 71.5Q604 94 604 126Q604 149 589.5 163.5Q575 178 543 178Q510 178 487.5 155.5Q465 133 465 101Q465 78 480.5 63.5Q496 49 527 49Z" glyph-name="oneeighth" horiz-adv-x="763" unicode="&#8539;" /><glyph d="M393 37Q406 89 439 121Q472 153 520 181Q541 194 560.5 205Q580 216 595 228Q610 240 618.5 253.5Q627 267 627 285Q627 326 579 326Q530 326 507 279H460L480 364Q503 372 529 378Q555 384 589 384Q649 384 681.5 361Q714 338 714 293Q714 264 702.5 242.5Q691 221 672 204.5Q653 188 629.5 174.5Q606 161 581 149Q544 130 515 109Q486 88 476 62H601L617 104H670L646 0H384ZM63 368H113Q119 368 125.5 374.5Q132 381 134 386L191 629L135 604H111L124 655L232 700H294L222 386Q220 381 223 374.5Q226 368 232 368H283L272 320H52ZM669 729H740L99 -34H26Z" glyph-name="onehalf" horiz-adv-x="754" unicode="&#189;" /><glyph d="M461 48H491Q497 48 503 54Q509 60 511 65L519 99H345L359 159L584 380H665L612 150H662L650 99H601L593 65Q591 60 593.5 54Q596 48 602 48H637L626 0H449ZM531 150 565 301H563L414 152V150ZM63 368H113Q119 368 125.5 374.5Q132 381 134 386L191 629L135 604H111L124 655L232 700H294L222 386Q220 381 223 374.5Q226 368 232 368H283L272 320H52ZM677 729H748L107 -34H34Z" glyph-name="onequarter" horiz-adv-x="722" unicode="&#188;" /><glyph d="M60 368H110Q116 368 122.5 374.5Q129 381 131 386L188 629L132 604H108L121 655L229 700H291L219 386Q217 381 220 374.5Q223 368 229 368H280L269 320H49Z" glyph-name="onesuperior" horiz-adv-x="283" unicode="&#185;" /><glyph d="M63 368H113Q119 368 125.5 374.5Q132 381 134 386L191 629L135 604H111L124 655L232 700H294L222 386Q220 381 223 374.5Q226 368 232 368H283L272 320H52ZM665 729H736L95 -34H22ZM517 -4Q475 -4 444 3.5Q413 11 393 20L411 93H456Q458 70 474 60Q490 50 516 50Q551 50 572 68Q593 86 593 120Q593 143 576.5 154.5Q560 166 532 166H503L516 220H546Q582 220 602.5 237Q623 254 623 282Q623 303 610 315Q597 327 571 327Q528 327 506 289H461L480 366Q503 374 527.5 379Q552 384 583 384Q640 384 672.5 360.5Q705 337 705 296Q705 253 679.5 228.5Q654 204 611 195V192Q642 186 660 166Q678 146 678 117Q678 63 635.5 29.5Q593 -4 517 -4Z" glyph-name="onethird" horiz-adv-x="757" unicode="&#8531;" /><glyph d="M199 254Q142 254 106 284.5Q70 315 70 372Q70 441 121.5 480Q173 519 264 519Q296 519 319 515Q342 511 360 503L373 555Q391 636 300 636Q257 636 232 625Q207 614 190 599H139L157 679Q187 691 224.5 699Q262 707 317 707Q359 707 391.5 697.5Q424 688 444.5 669Q465 650 472 621Q479 592 470 553L422 344Q420 333 426 325Q432 317 443 317H467L456 267Q446 262 430 257.5Q414 253 393 253Q360 253 342.5 269Q325 285 323 312Q299 285 268 269.5Q237 254 199 254ZM231 316Q262 316 284.5 330Q307 344 330 370L349 451Q332 457 313 460.5Q294 464 271 464Q168 464 168 379Q168 316 231 316Z" glyph-name="ordfeminine" horiz-adv-x="482" unicode="&#170;" /><glyph d="M272 253Q181 253 132 303Q83 353 83 437Q83 496 103 545.5Q123 595 157 631Q191 667 236.5 687Q282 707 332 707Q421 707 470.5 657.5Q520 608 520 525Q520 466 501 416Q482 366 448.5 330Q415 294 369.5 273.5Q324 253 272 253ZM275 317Q309 317 336 334.5Q363 352 381.5 381.5Q400 411 409.5 450Q419 489 419 532Q419 587 395 613.5Q371 640 329 640Q296 640 269.5 623Q243 606 224 577Q205 548 195 509Q185 470 185 427Q185 370 209 343.5Q233 317 275 317Z" glyph-name="ordmasculine" horiz-adv-x="502" unicode="&#186;" /><glyph d="M83 67Q38 121 38 211Q38 281 61 340Q84 399 123.5 441Q163 483 216 506.5Q269 530 328 530Q409 530 463 493L509 545H580L501 457Q546 401 546 316Q546 245 524 186.5Q502 128 463 85Q424 42 371 18.5Q318 -5 257 -5Q215 -5 181.5 4.5Q148 14 122 31L70 -27H-1ZM261 64Q302 64 334.5 85.5Q367 107 390 143Q413 179 425.5 226Q438 273 438 324Q438 355 432 379L178 94Q205 64 261 64ZM146 199Q146 168 152 144L405 428Q376 457 324 457Q284 457 251 436Q218 415 195 379.5Q172 344 159 297.5Q146 251 146 199Z" glyph-name="oslash" horiz-adv-x="583" unicode="&#248;" /><glyph d="M257 -5Q152 -5 95 53Q38 111 38 211Q38 281 61 340Q84 399 123.5 441Q163 483 216 506.5Q269 530 328 530Q432 530 489 471.5Q546 413 546 316Q546 245 524 186.5Q502 128 463 85Q424 42 371 18.5Q318 -5 257 -5ZM261 64Q302 64 334.5 85.5Q367 107 389.5 143Q412 179 424 226Q436 273 436 324Q436 457 324 457Q284 457 251.5 436Q219 415 196 379.5Q173 344 160.5 297.5Q148 251 148 199Q148 133 176.5 98.5Q205 64 261 64ZM202 628Q215 651 237 668.5Q259 686 295 686Q313 686 331.5 681Q350 676 367 670Q384 664 399.5 659Q415 654 426 654Q443 654 454.5 664Q466 674 473 690H528L515 634Q502 611 479.5 593.5Q457 576 421 576Q403 576 385 581.5Q367 587 349.5 593.5Q332 600 317 605.5Q302 611 291 611Q274 611 262.5 600.5Q251 590 245 573H190Z" glyph-name="otilde" horiz-adv-x="583" unicode="&#245;" /><glyph d="M-51 -102H-14Q-3 -102 7 -94Q17 -86 19 -76L132 421Q134 434 127.5 445Q121 456 107 456H73L86 515Q98 520 118 524.5Q138 529 168 529Q187 529 202.5 523.5Q218 518 228 506Q238 494 241.5 475Q245 456 240 429Q257 448 277.5 466.5Q298 485 323 499Q348 513 376.5 522Q405 531 437 531Q501 531 542 489.5Q583 448 583 357Q583 322 577 284.5Q571 247 559.5 211Q548 175 531 143Q514 111 491 86Q452 43 402 24.5Q352 6 300 6Q248 6 213 20Q178 34 156 54L121 -102H196L182 -162H-65ZM279 70Q330 70 366.5 94.5Q403 119 426.5 158Q450 197 461 245.5Q472 294 472 342Q472 402 449 427Q426 452 388 452Q345 452 303 427Q261 402 229 371L167 105Q184 92 209.5 81Q235 70 279 70Z" glyph-name="p" horiz-adv-x="617" unicode="p" /><glyph d="M287 318Q199 322 147.5 360Q96 398 96 474Q96 534 116.5 577Q137 620 174 647.5Q211 675 262.5 687.5Q314 700 376 700H657L642 634H600Q588 634 576 624Q564 614 562 603L401 -91H334L499 629H426L261 -91H193Z" glyph-name="paragraph" horiz-adv-x="591" unicode="&#182;" /><glyph d="M193 -49Q169 -35 144 -11.5Q119 12 98.5 47Q78 82 65.5 129Q53 176 53 236Q53 341 82.5 427Q112 513 158.5 577Q205 641 262 682.5Q319 724 373 741H414L400 682Q364 670 320.5 635.5Q277 601 239.5 544.5Q202 488 176.5 410Q151 332 151 233Q151 182 159.5 144Q168 106 181.5 79.5Q195 53 211.5 35.5Q228 18 244 8L231 -49Z" glyph-name="parenleft" horiz-adv-x="338" unicode="(" /><glyph d="M-23 8Q13 20 56.5 55Q100 90 138 146.5Q176 203 201.5 281.5Q227 360 227 459Q227 510 218 547.5Q209 585 195.5 611.5Q182 638 165.5 654.5Q149 671 133 682L146 741H184Q208 727 233.5 703.5Q259 680 279 645Q299 610 312 563Q325 516 325 456Q325 351 295.5 265Q266 179 220 115Q174 51 117.5 9.5Q61 -32 6 -49H-36Z" glyph-name="parenright" horiz-adv-x="338" unicode=")" /><glyph d="M234 343Q171 343 134 379.5Q97 416 97 482Q97 531 113.5 572Q130 613 157 643Q184 673 219 690Q254 707 292 707Q355 707 393.5 670Q432 633 432 567Q432 518 415.5 477Q399 436 371.5 406Q344 376 308.5 359.5Q273 343 234 343ZM243 404Q262 404 279.5 417Q297 430 310.5 452.5Q324 475 332 505.5Q340 536 340 571Q340 606 326 625.5Q312 645 286 645Q266 645 248 632Q230 619 216.5 596Q203 573 195 542.5Q187 512 187 477Q187 404 243 404ZM703 729H782L139 -34H59ZM549 -7Q486 -7 449 29.5Q412 66 412 132Q412 181 428.5 222Q445 263 472 293Q499 323 534 340Q569 357 607 357Q670 357 708.5 320Q747 283 747 217Q747 168 730.5 127Q714 86 686.5 56Q659 26 623.5 9.5Q588 -7 549 -7ZM558 54Q577 54 594.5 67Q612 80 625.5 102.5Q639 125 647 155.5Q655 186 655 221Q655 256 641 275.5Q627 295 601 295Q581 295 563 282Q545 269 531.5 246Q518 223 510 192.5Q502 162 502 127Q502 54 558 54Z" glyph-name="percent" horiz-adv-x="802" unicode="%" /><glyph d="M60 -5Q33 -5 16 12.5Q-1 30 -1 56Q-1 84 19.5 103Q40 122 67 122Q95 122 112 103.5Q129 85 129 60Q129 32 108.5 13.5Q88 -5 60 -5Z" glyph-name="period" horiz-adv-x="221" unicode="." /><glyph d="M117 239Q90 239 73 256.5Q56 274 56 300Q56 328 76.5 347Q97 366 124 366Q152 366 169 347.5Q186 329 186 304Q186 276 165.5 257.5Q145 239 117 239Z" glyph-name="periodcentered" horiz-adv-x="221" unicode="&#183;" /><glyph d="M234 343Q171 343 134 379.5Q97 416 97 482Q97 531 113.5 572Q130 613 157 643Q184 673 219 690Q254 707 292 707Q355 707 393.5 670Q432 633 432 567Q432 518 415.5 477Q399 436 371.5 406Q344 376 308.5 359.5Q273 343 234 343ZM243 404Q262 404 279.5 417Q297 430 310.5 452.5Q324 475 332 505.5Q340 536 340 571Q340 606 326 625.5Q312 645 286 645Q266 645 248 632Q230 619 216.5 596Q203 573 195 542.5Q187 512 187 477Q187 404 243 404ZM703 729H782L139 -34H59ZM549 -7Q486 -7 449 29.5Q412 66 412 132Q412 181 428.5 222Q445 263 472 293Q499 323 534 340Q569 357 607 357Q670 357 708.5 320Q747 283 747 217Q747 168 730.5 127Q714 86 686.5 56Q659 26 623.5 9.5Q588 -7 549 -7ZM558 54Q577 54 594.5 67Q612 80 625.5 102.5Q639 125 647 155.5Q655 186 655 221Q655 256 641 275.5Q627 295 601 295Q581 295 563 282Q545 269 531.5 246Q518 223 510 192.5Q502 162 502 127Q502 54 558 54ZM906 -7Q843 -7 806 29.5Q769 66 769 132Q769 181 785.5 222Q802 263 829 293Q856 323 891 340Q926 357 964 357Q1027 357 1065.5 320Q1104 283 1104 217Q1104 168 1087.5 127Q1071 86 1043.5 56Q1016 26 980.5 9.5Q945 -7 906 -7ZM915 54Q934 54 951.5 67Q969 80 982.5 102.5Q996 125 1004 155.5Q1012 186 1012 221Q1012 256 998 275.5Q984 295 958 295Q938 295 920 282Q902 269 888.5 246Q875 223 867 192.5Q859 162 859 127Q859 54 915 54Z" glyph-name="perthousand" horiz-adv-x="1159" unicode="&#8240;" /><glyph d="M235 305H55L74 386H255L298 576H384L341 386H520L501 305H321L278 115H192Z" glyph-name="plus" horiz-adv-x="536" unicode="+" /><glyph d="M253 -102H330L375 94Q340 55 294 30.5Q248 6 188 6Q119 6 77.5 47Q36 88 36 177Q36 213 42.5 249.5Q49 286 62 320Q75 354 93 384.5Q111 415 134 440Q176 486 227.5 508Q279 530 335 530Q363 530 384 525.5Q405 521 421.5 513Q438 505 451 494.5Q464 484 475 471Q491 494 509.5 509Q528 524 548 524H582L445 -75Q443 -85 449 -93.5Q455 -102 465 -102H507L493 -162H239ZM226 73Q276 73 317.5 101Q359 129 392 166L450 427Q435 437 413 446.5Q391 456 350 456Q297 456 259 430.5Q221 405 196 365Q171 325 159 275.5Q147 226 147 178Q147 120 168.5 96.5Q190 73 226 73Z" glyph-name="q" horiz-adv-x="600" unicode="q" /><glyph d="M137 180Q138 211 143.5 237Q149 263 160.5 287Q172 311 191.5 334.5Q211 358 242 384Q261 400 284.5 416.5Q308 433 329 453Q350 473 364 497.5Q378 522 378 555Q378 588 356.5 609.5Q335 631 293 631Q251 631 223 613Q195 595 179 554H112L139 675Q174 690 213 698.5Q252 707 308 707Q397 707 445.5 668Q494 629 494 561Q494 523 482 493.5Q470 464 449 440Q428 416 400 395Q372 374 340 352Q308 331 284.5 312.5Q261 294 244.5 274.5Q228 255 219 232.5Q210 210 207 180ZM153 -5Q126 -5 109 12.5Q92 30 92 56Q92 84 112.5 103Q133 122 160 122Q188 122 205 103.5Q222 85 222 60Q222 32 201.5 13.5Q181 -5 153 -5Z" glyph-name="question" horiz-adv-x="472" unicode="?" /><glyph d="M360 446Q358 415 353 389Q348 363 336.5 339Q325 315 305.5 291.5Q286 268 255 242Q236 226 212.5 209.5Q189 193 168 173Q147 153 133 128.5Q119 104 119 71Q119 38 140.5 16.5Q162 -5 204 -5Q246 -5 274 13Q302 31 318 72H385L358 -49Q323 -64 284 -72.5Q245 -81 189 -81Q100 -81 51.5 -42Q3 -3 3 65Q3 103 15 132.5Q27 162 48 186Q69 210 97 231Q125 252 157 274Q189 295 212.5 313.5Q236 332 252.5 351.5Q269 371 278 393.5Q287 416 290 446ZM344 631Q371 631 388 613.5Q405 596 405 570Q405 542 384.5 523Q364 504 337 504Q309 504 292 522.5Q275 541 275 566Q275 594 295.5 612.5Q316 631 344 631Z" glyph-name="questiondown" horiz-adv-x="472" unicode="&#191;" /><glyph d="M135 639 149 700H255L241 639L182 496H126ZM284 639 299 700H405L390 639L331 496H275Z" glyph-name="quotedbl" horiz-adv-x="350" unicode="&quot;" /><glyph d="M121 -40Q147 -37 166 -25.5Q185 -14 185 2Q185 10 180.5 14Q176 18 168 23Q148 37 148 62Q148 90 166.5 107Q185 124 211 124Q236 124 254 107Q272 90 272 61Q272 26 260 -0.5Q248 -27 226.5 -46Q205 -65 175 -75.5Q145 -86 110 -88ZM-33 -40Q-7 -37 12 -25.5Q31 -14 31 2Q31 10 26.5 14Q22 18 14 23Q-6 37 -6 62Q-6 90 12.5 107Q31 124 57 124Q82 124 100 107Q118 90 118 61Q118 26 106 -0.5Q94 -27 72.5 -46Q51 -65 21 -75.5Q-9 -86 -44 -88Z" glyph-name="quotedblbase" horiz-adv-x="360" unicode="&#8222;" /><glyph d="M172 491Q146 491 128 508Q110 525 110 554Q110 588 122 615Q134 642 156 660.5Q178 679 207.5 690Q237 701 273 703L262 655Q236 651 216.5 640Q197 629 197 612Q197 604 202 600.5Q207 597 215 591Q234 578 234 553Q234 525 215.5 508Q197 491 172 491ZM325 491Q300 491 282 508Q264 525 264 554Q264 588 276 615Q288 642 310 660.5Q332 679 361.5 690Q391 701 427 703L415 655Q389 651 370 640Q351 629 351 612Q351 604 355.5 600.5Q360 597 368 591Q388 579 388 553Q388 525 369.5 508Q351 491 325 491Z" glyph-name="quotedblleft" horiz-adv-x="361" unicode="&#8220;" /><glyph d="M256 542Q282 545 301 556Q320 567 320 584Q320 592 315.5 596Q311 600 303 605Q283 618 283 643Q283 672 302 689Q321 706 346 706Q372 706 389.5 689Q407 672 407 643Q407 608 395 581Q383 554 361.5 535.5Q340 517 310.5 506.5Q281 496 245 493ZM102 542Q128 545 147.5 556Q167 567 167 584Q167 592 162 596Q157 600 149 605Q129 618 129 643Q129 672 148 689Q167 706 192 706Q218 706 235.5 689Q253 672 253 643Q253 608 241 581Q229 554 207.5 535.5Q186 517 156.5 506.5Q127 496 91 493Z" glyph-name="quotedblright" horiz-adv-x="361" unicode="&#8221;" /><glyph d="M172 491Q146 491 128 508Q110 525 110 554Q110 588 122 615Q134 642 156 660.5Q178 679 207.5 690Q237 701 273 703L262 655Q236 651 216.5 640Q197 629 197 612Q197 604 202 600.5Q207 597 215 591Q234 578 234 553Q234 525 215.5 508Q197 491 172 491Z" glyph-name="quoteleft" horiz-adv-x="207" unicode="&#8216;" /><glyph d="M102 542Q128 545 147.5 556Q167 567 167 584Q167 592 162 596Q157 600 149 605Q129 618 129 643Q129 672 148 689Q167 706 192 706Q218 706 235.5 689Q253 672 253 643Q253 608 241 581Q229 554 207.5 535.5Q186 517 156.5 506.5Q127 496 91 493Z" glyph-name="quoteright" horiz-adv-x="207" unicode="&#8217;" /><glyph d="M-33 -40Q-7 -37 12 -25.5Q31 -14 31 2Q31 10 26.5 14Q22 18 14 23Q-6 37 -6 62Q-6 90 12.5 107Q31 124 57 124Q82 124 100 107Q118 90 118 61Q118 26 106 -0.5Q94 -27 72.5 -46Q51 -65 21 -75.5Q-9 -86 -44 -88Z" glyph-name="quotesinglbase" horiz-adv-x="206" unicode="&#8218;" /><glyph d="M135 639 149 700H255L241 639L182 496H126Z" glyph-name="quotesingle" horiz-adv-x="201" unicode="'" /><glyph d="M62 0Q51 0 44.5 8.5Q38 17 42 32L132 421Q134 434 127.5 445Q121 456 107 456H73L86 515Q98 520 118 524.5Q138 529 168 529Q208 529 228.5 503Q249 477 240 423Q256 444 274 463Q292 482 313 496.5Q334 511 357 519.5Q380 528 406 528Q414 528 421 527Q428 526 433 524L412 435H393Q336 435 297 413.5Q258 392 226 359L144 0Z" glyph-name="r" horiz-adv-x="413" unicode="r" /><glyph d="M282 350Q246 350 213 362Q180 374 155.5 397Q131 420 116 453.5Q101 487 101 529Q101 572 116 605Q131 638 155.5 661Q180 684 213 696Q246 708 282 708Q318 708 350.5 696Q383 684 408 661Q433 638 448 605Q463 572 463 529Q463 487 448 453.5Q433 420 408 397Q383 374 350.5 362Q318 350 282 350ZM282 380Q312 380 339 390Q366 400 385.5 418.5Q405 437 416.5 465Q428 493 428 529Q428 565 416.5 593Q405 621 385.5 639.5Q366 658 339 668Q312 678 282 678Q252 678 225.5 668Q199 658 179.5 639.5Q160 621 148.5 593Q137 565 137 529Q137 493 148.5 465Q160 437 179.5 418.5Q199 400 225.5 390Q252 380 282 380ZM201 470H211Q213 470 216 472.5Q219 475 219 478V585Q219 587 216 590Q213 593 211 593H201V620H287Q359 620 359 570Q359 539 323 529V528Q337 526 343.5 518.5Q350 511 355 492L360 476Q361 473 363.5 471.5Q366 470 368 470H375V444H318L309 492Q307 504 301.5 509.5Q296 515 284 515H267V470H287V444H201ZM266 541H284Q299 541 304.5 547.5Q310 554 310 567Q310 578 305 584.5Q300 591 284 591H266Z" glyph-name="registered" horiz-adv-x="438" unicode="&#174;" /><glyph d="M313 569Q272 569 244.5 593.5Q217 618 217 660Q217 684 225.5 702.5Q234 721 248.5 734Q263 747 282 754Q301 761 321 761Q361 761 388.5 736Q416 711 416 670Q416 646 407.5 627Q399 608 384.5 595.5Q370 583 351.5 576Q333 569 313 569ZM314 612Q336 612 351.5 627Q367 642 367 668Q367 691 354 704.5Q341 718 319 718Q296 718 281 703Q266 688 266 660Q266 638 278.5 625Q291 612 314 612Z" glyph-name="ring" horiz-adv-x="446" unicode="&#730;" /><glyph d="M177 -5Q103 -5 62 7.5Q21 20 -5 35L17 134H81Q83 94 104.5 77Q126 60 175 60Q228 60 256.5 84Q285 108 285 146Q285 163 277 174.5Q269 186 255.5 194.5Q242 203 223 210.5Q204 218 183 227Q159 237 139.5 249Q120 261 106 276.5Q92 292 84.5 312.5Q77 333 77 362Q77 442 132 485.5Q187 529 279 529Q311 529 335.5 526Q360 523 378.5 518.5Q397 514 412 507.5Q427 501 441 494L419 397H359Q356 430 331.5 444Q307 458 269 458Q218 458 194.5 436Q171 414 171 384Q171 352 196 337.5Q221 323 263 306Q289 295 311.5 283.5Q334 272 350.5 256Q367 240 376 218Q385 196 385 165Q385 87 329.5 41Q274 -5 177 -5Z" glyph-name="s" horiz-adv-x="453" unicode="s" /><glyph d="M438 671 346 568H254L195 671L202 701H243L307 632L399 701H445ZM177 -5Q103 -5 62 7.5Q21 20 -5 35L17 134H81Q83 94 104.5 77Q126 60 175 60Q228 60 256.5 84Q285 108 285 146Q285 163 277 174.5Q269 186 255.5 194.5Q242 203 223 210.5Q204 218 183 227Q159 237 139.5 249Q120 261 106 276.5Q92 292 84.5 312.5Q77 333 77 362Q77 442 132 485.5Q187 529 279 529Q311 529 335.5 526Q360 523 378.5 518.5Q397 514 412 507.5Q427 501 441 494L419 397H359Q356 430 331.5 444Q307 458 269 458Q218 458 194.5 436Q171 414 171 384Q171 352 196 337.5Q221 323 263 306Q289 295 311.5 283.5Q334 272 350.5 256Q367 240 376 218Q385 196 385 165Q385 87 329.5 41Q274 -5 177 -5Z" glyph-name="scaron" horiz-adv-x="453" unicode="&#353;" /><glyph d="M185 -132Q108 -132 61.5 -117.5Q15 -103 -8 -92L17 15H87Q88 -28 111.5 -45Q135 -62 185 -62Q242 -62 272.5 -38.5Q303 -15 303 23Q303 40 296 53Q289 66 273.5 77.5Q258 89 234 100.5Q210 112 177 127Q111 155 78.5 189.5Q46 224 46 278Q46 333 82.5 373.5Q119 414 194 434Q177 450 167 473.5Q157 497 157 529Q157 565 172 597.5Q187 630 215.5 654.5Q244 679 284 693Q324 707 375 707Q445 707 485.5 696Q526 685 553 670L530 571H462Q459 606 437.5 620.5Q416 635 368 635Q314 635 284.5 611Q255 587 255 549Q255 533 260 520.5Q265 508 278 497Q291 486 313 475.5Q335 465 368 453Q443 426 481 390Q519 354 519 299Q519 242 481.5 201Q444 160 367 140Q390 121 400 99.5Q410 78 410 47Q410 9 396 -23.5Q382 -56 353.5 -80Q325 -104 283 -118Q241 -132 185 -132ZM309 180Q357 191 387 214.5Q417 238 418 276Q419 307 389.5 327Q360 347 309 368L250 393Q191 381 166.5 359Q142 337 142 302Q142 275 163 255Q184 235 239 211Z" glyph-name="section" horiz-adv-x="553" unicode="&#167;" /><glyph d="M130 292Q103 292 86 309.5Q69 327 69 353Q69 381 89.5 400Q110 419 137 419Q165 419 182 400.5Q199 382 199 357Q199 329 178.5 310.5Q158 292 130 292ZM-30 -53Q-1 -49 18.5 -36.5Q38 -24 38 -6Q38 2 33 5.5Q28 9 19 16Q0 30 0 55Q0 85 19.5 103.5Q39 122 66 122Q92 122 111 104Q130 86 130 55Q130 -19 82 -58.5Q34 -98 -41 -103Z" glyph-name="semicolon" horiz-adv-x="224" unicode=";" /><glyph d="M87 47 503 610V613H208L169 510H95L138 700H607L584 604L192 0H77Z" glyph-name="seven" horiz-adv-x="543" unicode="7" /><glyph d="M643 729H714L73 -34H0ZM516 -5Q444 -5 409 23Q374 51 374 93Q374 137 403.5 166Q433 195 482 205V207Q459 215 445.5 232Q432 249 432 271Q432 297 443.5 318Q455 339 475 354Q495 369 521 377Q547 385 576 385Q637 385 669 359Q701 333 701 295Q701 260 677 235Q653 210 614 201V199Q643 191 660 170.5Q677 150 677 123Q677 65 633 30Q589 -5 516 -5ZM558 226Q587 226 604 241.5Q621 257 621 287Q621 304 608.5 317Q596 330 572 330Q544 330 527 312.5Q510 295 510 266Q510 248 522.5 237Q535 226 558 226ZM519 49Q555 49 575.5 71.5Q596 94 596 126Q596 149 581.5 163.5Q567 178 535 178Q502 178 479.5 155.5Q457 133 457 101Q457 78 472.5 63.5Q488 49 519 49ZM111 357 329 635V637H182L160 583H108L135 700H402L387 631L190 320H102Z" glyph-name="seveneighths" horiz-adv-x="755" unicode="&#8542;" /><glyph d="M284 -7Q178 -7 117 56Q56 119 56 240Q56 324 83 407.5Q110 491 161.5 557Q213 623 289 664.5Q365 706 464 706Q527 706 563.5 696.5Q600 687 623 678L604 594H540Q532 605 512.5 617Q493 629 452 629Q397 629 353.5 607.5Q310 586 277 549Q244 512 221 463Q198 414 184 359Q220 394 269.5 415.5Q319 437 375 437Q462 437 512 393.5Q562 350 562 269Q562 211 542 160.5Q522 110 485.5 73Q449 36 397.5 14.5Q346 -7 284 -7ZM289 67Q326 67 355.5 82Q385 97 404.5 122.5Q424 148 434.5 182.5Q445 217 445 257Q445 359 335 359Q287 359 246 340.5Q205 322 174 296Q171 276 169.5 257.5Q168 239 168 225Q168 143 197 105Q226 67 289 67Z" glyph-name="six" horiz-adv-x="611" unicode="6" /><glyph d="M372 741H456L35 -49H-50Z" glyph-name="slash" horiz-adv-x="370" unicode="/" /><glyph glyph-name="space" horiz-adv-x="169" unicode=" " /><glyph d="M90 -163Q116 -160 130.5 -152Q145 -144 145 -129Q145 -122 141 -118.5Q137 -115 131 -110Q114 -98 114 -76Q114 -53 130.5 -39Q147 -25 170 -25Q194 -25 210.5 -40Q227 -55 227 -83Q227 -141 187 -172.5Q147 -204 79 -208Z" glyph-name="space_uni0326" horiz-adv-x="446" unicode="&#63171;" /><glyph d="M125 385Q124 405 123.5 421.5Q123 438 123 452Q123 521 144 569.5Q165 618 201 648.5Q237 679 284.5 692.5Q332 706 385 706Q450 706 495.5 694.5Q541 683 579 662L549 535H482Q485 588 458 608.5Q431 629 379 629Q317 629 285 594Q253 559 245 493Q242 467 240.5 440Q239 413 237 385H412L396 313H233Q228 256 218 204Q208 152 184 112Q228 99 275.5 93.5Q323 88 379 88L411 180H487L446 0H400Q309 0 243.5 13Q178 26 128 49Q110 35 88.5 22.5Q67 10 40 0H-20L-6 64Q53 78 90.5 128Q128 178 128 273Q128 283 128 292.5Q128 302 127 313H53L69 385Z" glyph-name="sterling" horiz-adv-x="546" unicode="&#163;" /><glyph d="M185 -7Q107 -7 79 35Q51 77 68 149L139 456H76L91 524H154L187 665H295L262 524H371L356 456H246L176 148Q166 107 177.5 85.5Q189 64 229 64H277L264 7Q247 1 228.5 -3Q210 -7 185 -7Z" glyph-name="t" horiz-adv-x="353" unicode="t" /><glyph d="M-75 -102H-37Q-26 -102 -16 -93.5Q-6 -85 -4 -75L152 607Q154 616 148 625Q142 634 133 634H94L109 700H261Q281 700 275 673L220 432Q237 451 257.5 468.5Q278 486 302.5 500Q327 514 354.5 522.5Q382 531 414 531Q478 531 519 489.5Q560 448 560 357Q560 322 554 284.5Q548 247 536.5 211Q525 175 508 143Q491 111 468 86Q429 43 378.5 24.5Q328 6 279 6Q224 6 189.5 20Q155 34 133 54L98 -102H173L159 -162H-88ZM256 70Q307 70 343.5 94.5Q380 119 403.5 158Q427 197 438 245.5Q449 294 449 342Q449 402 426 427Q403 452 365 452Q322 452 280 427Q238 402 206 371L144 105Q161 92 186.5 81Q212 70 256 70Z" glyph-name="thorn" horiz-adv-x="594" unicode="&#254;" /><glyph d="M197 -7Q128 -7 76.5 6Q25 19 -10 36L18 158H82Q85 106 116 87.5Q147 69 201 69Q279 69 322.5 109Q366 149 366 221Q366 269 334.5 294.5Q303 320 244 320H195L212 397H262Q340 397 381 435Q422 473 422 533Q422 630 317 630Q265 630 235.5 612Q206 594 187 550H121L149 671Q192 687 231.5 697Q271 707 327 707Q427 707 481.5 664Q536 621 536 548Q536 469 489 421Q442 373 364 357V354Q421 345 451.5 307.5Q482 270 482 218Q482 168 463 126.5Q444 85 407 55.5Q370 26 317 9.5Q264 -7 197 -7Z" glyph-name="three" horiz-adv-x="544" unicode="3" /><glyph d="M179 316Q137 316 106 323.5Q75 331 55 340L73 413H118Q120 390 136 380Q152 370 178 370Q213 370 234 388Q255 406 255 440Q255 463 238.5 474.5Q222 486 194 486H165L178 540H208Q244 540 264.5 557Q285 574 285 602Q285 623 272 635Q259 647 233 647Q190 647 168 609H123L142 686Q165 694 189.5 699Q214 704 245 704Q302 704 334.5 680.5Q367 657 367 616Q367 573 341.5 548.5Q316 524 273 515V512Q304 506 322 486Q340 466 340 437Q340 383 297.5 349.5Q255 316 179 316ZM678 729H749L108 -34H35ZM535 -5Q463 -5 428 23Q393 51 393 93Q393 137 422.5 166Q452 195 501 205V207Q478 215 464.5 232Q451 249 451 271Q451 297 462.5 318Q474 339 494 354Q514 369 540 377Q566 385 595 385Q656 385 688 359Q720 333 720 295Q720 260 696 235Q672 210 633 201V199Q662 191 679 170.5Q696 150 696 123Q696 65 652 30Q608 -5 535 -5ZM577 226Q606 226 623 241.5Q640 257 640 287Q640 304 627.5 317Q615 330 591 330Q563 330 546 312.5Q529 295 529 266Q529 248 541.5 237Q554 226 577 226ZM538 49Q574 49 594.5 71.5Q615 94 615 126Q615 149 600.5 163.5Q586 178 554 178Q521 178 498.5 155.5Q476 133 476 101Q476 78 491.5 63.5Q507 49 538 49Z" glyph-name="threeeighths" horiz-adv-x="774" unicode="&#8540;" /><glyph d="M179 316Q137 316 106 323.5Q75 331 55 340L73 413H118Q120 390 136 380Q152 370 178 370Q213 370 234 388Q255 406 255 440Q255 463 238.5 474.5Q222 486 194 486H165L178 540H208Q244 540 264.5 557Q285 574 285 602Q285 623 272 635Q259 647 233 647Q190 647 168 609H123L142 686Q165 694 189.5 699Q214 704 245 704Q302 704 334.5 680.5Q367 657 367 616Q367 573 341.5 548.5Q316 524 273 515V512Q304 506 322 486Q340 466 340 437Q340 383 297.5 349.5Q255 316 179 316ZM461 48H491Q497 48 503 54Q509 60 511 65L519 99H345L359 159L584 380H665L612 150H662L650 99H601L593 65Q591 60 593.5 54Q596 48 602 48H637L626 0H449ZM531 150 565 301H563L414 152V150ZM686 729H757L116 -34H43Z" glyph-name="threequarters" horiz-adv-x="722" unicode="&#190;" /><glyph d="M176 316Q134 316 103 323.5Q72 331 52 340L70 413H115Q117 390 133 380Q149 370 175 370Q210 370 231 388Q252 406 252 440Q252 463 235.5 474.5Q219 486 191 486H162L175 540H205Q241 540 261.5 557Q282 574 282 602Q282 623 269 635Q256 647 230 647Q187 647 165 609H120L139 686Q162 694 186.5 699Q211 704 242 704Q299 704 331.5 680.5Q364 657 364 616Q364 573 338.5 548.5Q313 524 270 515V512Q301 506 319 486Q337 466 337 437Q337 383 294.5 349.5Q252 316 176 316Z" glyph-name="threesuperior" horiz-adv-x="338" unicode="&#179;" /><glyph d="M152 628Q165 651 187 668.5Q209 686 245 686Q263 686 281.5 681Q300 676 317 670Q334 664 349.5 659Q365 654 376 654Q393 654 404.5 664Q416 674 423 690H478L465 634Q452 611 429.5 593.5Q407 576 371 576Q353 576 335 581.5Q317 587 299.5 593.5Q282 600 267 605.5Q252 611 241 611Q224 611 212.5 600.5Q201 590 195 573H140Z" glyph-name="tilde" horiz-adv-x="446" unicode="&#732;" /><glyph d="M361 458H380Q385 458 390 462Q395 466 396 471L438 651Q439 655 437.5 659Q436 663 431 663H409L418 700H542L558 522H559L658 700H789L780 663H760Q756 663 751 659Q746 655 745 651L703 471Q702 466 703.5 462Q705 458 710 458H732L724 423H597L604 458H634L679 650H678L551 423H509L487 650H486L441 458H471L463 423H353ZM146 458H166Q171 458 176 462Q181 466 182 471L226 661H180L161 602H118L141 700H399L377 602H333L341 661H294L250 471Q248 466 250 462Q252 458 257 458H280L273 423H138Z" glyph-name="trademark" horiz-adv-x="722" unicode="&#8482;" /><glyph d="M-11 52Q0 99 22 137Q44 175 75 207.5Q106 240 145.5 268.5Q185 297 232 325Q273 350 311 371Q349 392 378.5 416Q408 440 425.5 469Q443 498 443 538Q443 580 419 605Q395 630 343 630Q291 630 255.5 607.5Q220 585 197 536H129L161 670Q202 687 247 697Q292 707 350 707Q449 707 506 664.5Q563 622 563 544Q563 488 539.5 447Q516 406 478.5 374.5Q441 343 392.5 317Q344 291 295 265Q225 229 171.5 186Q118 143 99 86H369L400 179H478L437 0H-23Z" glyph-name="two" horiz-adv-x="553" unicode="2" /><glyph d="M56 357Q69 409 102 441Q135 473 183 501Q204 514 223.5 525Q243 536 258 548Q273 560 281.5 573.5Q290 587 290 605Q290 646 242 646Q193 646 170 599H123L143 684Q166 692 192 698Q218 704 252 704Q312 704 344.5 681Q377 658 377 613Q377 584 365.5 562.5Q354 541 335 524.5Q316 508 292.5 494.5Q269 481 244 469Q207 450 178 429Q149 408 139 382H264L280 424H333L309 320H47Z" glyph-name="twosuperior" horiz-adv-x="343" unicode="&#178;" /><glyph d="M59 357Q72 409 105 441Q138 473 186 501Q207 514 226.5 525Q246 536 261 548Q276 560 284.5 573.5Q293 587 293 605Q293 646 245 646Q196 646 173 599H126L146 684Q169 692 195 698Q221 704 255 704Q315 704 347.5 681Q380 658 380 613Q380 584 368.5 562.5Q357 541 338 524.5Q319 508 295.5 494.5Q272 481 247 469Q210 450 181 429Q152 408 142 382H267L283 424H336L312 320H50ZM709 729H780L139 -34H66ZM564 -4Q522 -4 491 3.5Q460 11 440 20L458 93H503Q505 70 521 60Q537 50 563 50Q598 50 619 68Q640 86 640 120Q640 143 623.5 154.5Q607 166 579 166H550L563 220H593Q629 220 649.5 237Q670 254 670 282Q670 303 657 315Q644 327 618 327Q575 327 553 289H508L527 366Q550 374 574.5 379Q599 384 630 384Q687 384 719.5 360.5Q752 337 752 296Q752 253 726.5 228.5Q701 204 658 195V192Q689 186 707 166Q725 146 725 117Q725 63 682.5 29.5Q640 -4 564 -4Z" glyph-name="twothirds" horiz-adv-x="804" unicode="&#8532;" /><glyph d="M173 -7Q106 -7 78 35.5Q50 78 66 147L129 421Q132 434 125.5 445Q119 456 105 456H73L86 515Q98 520 119.5 524.5Q141 529 168 529Q216 529 232.5 499Q249 469 237 420L176 153Q168 115 180 93.5Q192 72 225 72Q265 72 305 93Q345 114 385 146L472 524H554Q565 524 571 515Q577 506 573 491L483 98Q480 84 487.5 74Q495 64 507 64H539L527 8Q513 2 494.5 -2Q476 -6 453 -6Q410 -6 388.5 16.5Q367 39 375 87Q333 47 282 20Q231 -7 173 -7Z" glyph-name="u" horiz-adv-x="616" unicode="u" /><glyph d="M389 701H500L490 662L388 568H325ZM173 -7Q106 -7 78 35.5Q50 78 66 147L129 421Q132 434 125.5 445Q119 456 105 456H73L86 515Q98 520 119.5 524.5Q141 529 168 529Q216 529 232.5 499Q249 469 237 420L176 153Q168 115 180 93.5Q192 72 225 72Q265 72 305 93Q345 114 385 146L472 524H554Q565 524 571 515Q577 506 573 491L483 98Q480 84 487.5 74Q495 64 507 64H539L527 8Q513 2 494.5 -2Q476 -6 453 -6Q410 -6 388.5 16.5Q367 39 375 87Q333 47 282 20Q231 -7 173 -7Z" glyph-name="uacute" horiz-adv-x="616" unicode="&#250;" /><glyph d="M249 598 341 701H433L492 598L485 568H444L380 637L288 568H242ZM173 -7Q106 -7 78 35.5Q50 78 66 147L129 421Q132 434 125.5 445Q119 456 105 456H73L86 515Q98 520 119.5 524.5Q141 529 168 529Q216 529 232.5 499Q249 469 237 420L176 153Q168 115 180 93.5Q192 72 225 72Q265 72 305 93Q345 114 385 146L472 524H554Q565 524 571 515Q577 506 573 491L483 98Q480 84 487.5 74Q495 64 507 64H539L527 8Q513 2 494.5 -2Q476 -6 453 -6Q410 -6 388.5 16.5Q367 39 375 87Q333 47 282 20Q231 -7 173 -7Z" glyph-name="ucircumflex" horiz-adv-x="616" unicode="&#251;" /><glyph d="M288 581Q263 581 247.5 597Q232 613 232 636Q232 662 250.5 679Q269 696 294 696Q319 696 334.5 679.5Q350 663 350 640Q350 614 331 597.5Q312 581 288 581ZM459 581Q435 581 419.5 597Q404 613 404 636Q404 662 422.5 679Q441 696 465 696Q490 696 505.5 679.5Q521 663 521 640Q521 614 502 597.5Q483 581 459 581ZM173 -7Q106 -7 78 35.5Q50 78 66 147L129 421Q132 434 125.5 445Q119 456 105 456H73L86 515Q98 520 119.5 524.5Q141 529 168 529Q216 529 232.5 499Q249 469 237 420L176 153Q168 115 180 93.5Q192 72 225 72Q265 72 305 93Q345 114 385 146L472 524H554Q565 524 571 515Q577 506 573 491L483 98Q480 84 487.5 74Q495 64 507 64H539L527 8Q513 2 494.5 -2Q476 -6 453 -6Q410 -6 388.5 16.5Q367 39 375 87Q333 47 282 20Q231 -7 173 -7Z" glyph-name="udieresis" horiz-adv-x="616" unicode="&#252;" /><glyph d="M173 -7Q106 -7 78 35.5Q50 78 66 147L129 421Q132 434 125.5 445Q119 456 105 456H73L86 515Q98 520 119.5 524.5Q141 529 168 529Q216 529 232.5 499Q249 469 237 420L176 153Q168 115 180 93.5Q192 72 225 72Q265 72 305 93Q345 114 385 146L472 524H554Q565 524 571 515Q577 506 573 491L483 98Q480 84 487.5 74Q495 64 507 64H539L527 8Q513 2 494.5 -2Q476 -6 453 -6Q410 -6 388.5 16.5Q367 39 375 87Q333 47 282 20Q231 -7 173 -7ZM257 662 266 701H360L402 568H341Z" glyph-name="ugrave" horiz-adv-x="616" unicode="&#249;" /><glyph d="M-62 -97H298L282 -162H-77Z" glyph-name="underscore" horiz-adv-x="395" unicode="_" /><glyph d="M66 339H276L256 256H46Z" glyph-name="uni00AD" horiz-adv-x="305" unicode="&#173;" /><glyph glyph-name="uni2009" horiz-adv-x="101" unicode="&#8201;" /><glyph d="M125 426Q123 442 114.5 449Q106 456 95 456H71L84 515Q96 520 113 524.5Q130 529 158 529Q179 529 192.5 523.5Q206 518 213.5 507.5Q221 497 224.5 482Q228 467 230 448L272 111H274Q337 197 387.5 299Q438 401 468 524H562L547 456Q502 346 438.5 230.5Q375 115 278 0H184Z" glyph-name="v" horiz-adv-x="558" unicode="v" /><glyph d="M125 425Q123 441 114 448.5Q105 456 94 456H71L84 515Q96 520 113 524.5Q130 529 156 529Q199 529 212.5 508Q226 487 227 447L235 139H237L424 524H515L534 122H536Q587 202 630.5 304Q674 406 698 524H792L777 456Q739 349 677.5 230.5Q616 112 528 0H445L430 380H428L239 0H142Z" glyph-name="w" horiz-adv-x="788" unicode="w" /><glyph d="M393 -6Q373 -6 359 -1.5Q345 3 335 13Q325 23 316.5 37.5Q308 52 299 73L242 196Q194 123 150 71.5Q106 20 75 0H-5L9 64Q47 76 95.5 121.5Q144 167 210 258L130 430Q123 445 115.5 450.5Q108 456 96 456H66L79 515Q88 519 105 524Q122 529 145 529Q164 529 176.5 525.5Q189 522 199.5 512.5Q210 503 219 486Q228 469 239 443L287 332Q335 403 377.5 454Q420 505 452 524H529L513 456Q481 448 434 403.5Q387 359 319 271L401 95Q409 77 419.5 70.5Q430 64 441 64H467L455 8Q444 3 429.5 -1.5Q415 -6 393 -6Z" glyph-name="x" horiz-adv-x="527" unicode="x" /><glyph d="M196 -171Q128 -171 86 -161.5Q44 -152 16 -141L35 -59H98Q126 -104 204 -104Q268 -104 303.5 -79Q339 -54 351 -1L376 104Q334 66 286.5 42.5Q239 19 182 19Q115 19 85 58Q55 97 71 166L129 421Q132 434 125.5 445Q119 456 105 456H73L86 515Q98 520 119.5 524.5Q141 529 168 529Q214 529 231.5 500Q249 471 237 420L181 172Q173 136 185.5 116.5Q198 97 230 97Q270 97 310 116.5Q350 136 390 167L472 524H554Q565 524 571 515Q577 506 573 491L461 5Q439 -88 374.5 -129.5Q310 -171 196 -171Z" glyph-name="y" horiz-adv-x="603" unicode="y" /><glyph d="M196 -171Q128 -171 86 -161.5Q44 -152 16 -141L35 -59H98Q126 -104 204 -104Q268 -104 303.5 -79Q339 -54 351 -1L376 104Q334 66 286.5 42.5Q239 19 182 19Q115 19 85 58Q55 97 71 166L129 421Q132 434 125.5 445Q119 456 105 456H73L86 515Q98 520 119.5 524.5Q141 529 168 529Q214 529 231.5 500Q249 471 237 420L181 172Q173 136 185.5 116.5Q198 97 230 97Q270 97 310 116.5Q350 136 390 167L472 524H554Q565 524 571 515Q577 506 573 491L461 5Q439 -88 374.5 -129.5Q310 -171 196 -171ZM386 700H497L487 661L385 567H322Z" glyph-name="yacute" horiz-adv-x="603" unicode="&#253;" /><glyph d="M196 -171Q128 -171 86 -161.5Q44 -152 16 -141L35 -59H98Q126 -104 204 -104Q268 -104 303.5 -79Q339 -54 351 -1L376 104Q334 66 286.5 42.5Q239 19 182 19Q115 19 85 58Q55 97 71 166L129 421Q132 434 125.5 445Q119 456 105 456H73L86 515Q98 520 119.5 524.5Q141 529 168 529Q214 529 231.5 500Q249 471 237 420L181 172Q173 136 185.5 116.5Q198 97 230 97Q270 97 310 116.5Q350 136 390 167L472 524H554Q565 524 571 515Q577 506 573 491L461 5Q439 -88 374.5 -129.5Q310 -171 196 -171ZM286 580Q261 580 245.5 596Q230 612 230 635Q230 661 248.5 678Q267 695 292 695Q317 695 332.5 678.5Q348 662 348 639Q348 613 329 596.5Q310 580 286 580ZM457 580Q433 580 417.5 596Q402 612 402 635Q402 661 420.5 678Q439 695 463 695Q488 695 503.5 678.5Q519 662 519 639Q519 613 500 596.5Q481 580 457 580Z" glyph-name="ydieresis" horiz-adv-x="603" unicode="&#255;" /><glyph d="M255 250 269 310H91L106 373H256L169 605Q158 634 133 634H121L136 700H374L359 634H282L361 394H363L494 570Q517 601 509.5 617.5Q502 634 476 634H449L464 700H697L682 634H663Q649 634 636.5 626Q624 618 613 604L430 373H578L563 310H385L371 250H550L535 187H357L336 95Q333 84 338 74Q343 64 354 64H407L393 0H119L133 64H181Q193 64 205 74Q217 84 220 95L241 187H63L78 250Z" glyph-name="yen" horiz-adv-x="629" unicode="&#165;" /><glyph d="M-7 73 387 453H177L145 360H79L116 524H529L512 449L118 70H338L368 163H436L399 0H-24Z" glyph-name="z" horiz-adv-x="507" unicode="z" /><glyph d="M463 670 371 567H279L220 670L227 700H268L332 631L424 700H470ZM-7 73 387 453H177L145 360H79L116 524H529L512 449L118 70H338L368 163H436L399 0H-24Z" glyph-name="zcaron" horiz-adv-x="507" unicode="&#382;" /><glyph d="M305 -7Q248 -7 202.5 11Q157 29 125 63.5Q93 98 75.5 147.5Q58 197 58 261Q58 350 83.5 428Q109 506 153 565Q204 633 271 669.5Q338 706 415 706Q473 706 518.5 687.5Q564 669 595.5 634Q627 599 643.5 549.5Q660 500 660 438Q660 344 633.5 260.5Q607 177 563 120Q512 54 444.5 23.5Q377 -7 305 -7ZM308 69Q364 69 405.5 97Q447 125 479 180Q510 233 525 305Q540 377 540 452Q540 536 509 582Q478 628 411 628Q356 628 314.5 597.5Q273 567 241 510Q209 455 193.5 384.5Q178 314 178 246Q178 161 210 115Q242 69 308 69Z" glyph-name="zero" horiz-adv-x="679" unicode="0" /></font>
</defs>
</svg>
